<svg width="134" height="37" viewBox="0 0 134 37" fill="none" xmlns="http://www.w3.org/2000/svg">
<g clip-path="url(#clip0_329_25)">
<path d="M0 0H134V37H0V0Z" fill="#2098FF"/>
<path d="M45.0487 26.1428C43.9158 26.1428 42.9073 25.9883 42.0231 25.6793C41.1388 25.3739 40.3913 24.9247 39.7805 24.3317C39.1697 23.7422 38.7045 23.0213 38.3849 22.169C38.0653 21.3168 37.9055 20.3473 37.9055 19.2607C37.9055 18.1882 38.0653 17.2152 38.3849 16.3416C38.7081 15.468 39.1786 14.7188 39.7965 14.0938C40.4144 13.4652 41.169 12.9822 42.0604 12.6449C42.9553 12.3075 43.9744 12.1388 45.1179 12.1388C46.1761 12.1388 47.1207 12.2933 47.9517 12.6023C48.7862 12.9112 49.4929 13.3516 50.0717 13.9233C50.6541 14.4915 51.0962 15.168 51.3981 15.9528C51.7035 16.734 51.8544 17.5987 51.8509 18.5469C51.8544 19.2003 51.7976 19.8004 51.6804 20.3473C51.5632 20.8942 51.3786 21.3718 51.1264 21.7802C50.8778 22.185 50.5511 22.5064 50.1463 22.7443C49.7415 22.9787 49.2514 23.1119 48.6761 23.1438C48.2642 23.1758 47.9304 23.1456 47.6747 23.0533C47.419 22.9609 47.2237 22.8242 47.0888 22.6431C46.9574 22.4585 46.8722 22.2436 46.8331 21.9986H46.7692C46.6839 22.2116 46.517 22.4052 46.2685 22.5792C46.0199 22.7496 45.7163 22.8828 45.3576 22.9787C45.0025 23.071 44.6243 23.1048 44.223 23.0799C43.804 23.055 43.4063 22.9574 43.0298 22.7869C42.657 22.6165 42.3249 22.3697 42.0337 22.0465C41.7461 21.7234 41.5188 21.3239 41.3519 20.848C41.1886 20.3722 41.1051 19.8217 41.1016 19.1967C41.1051 18.5788 41.1921 18.0408 41.3626 17.5827C41.5366 17.1246 41.7656 16.7393 42.0497 16.4268C42.3374 16.1143 42.657 15.8693 43.0085 15.6918C43.3601 15.5142 43.7134 15.4006 44.0685 15.3509C44.4698 15.2905 44.8498 15.2905 45.2085 15.3509C45.5671 15.4112 45.869 15.5089 46.114 15.6438C46.3626 15.7788 46.517 15.9244 46.5774 16.0806H46.652V15.484H48.3192V20.6829C48.3228 20.9279 48.3778 21.1179 48.4844 21.2528C48.5909 21.3878 48.7347 21.4553 48.9158 21.4553C49.1609 21.4553 49.3651 21.3469 49.5284 21.1303C49.6953 20.9137 49.8196 20.5817 49.9013 20.1342C49.9865 19.6868 50.0291 19.1168 50.0291 18.4244C50.0291 17.7567 49.9403 17.1708 49.7628 16.6665C49.5888 16.1587 49.3438 15.7273 49.0277 15.3722C48.7152 15.0135 48.3512 14.7223 47.9357 14.4986C47.5202 14.2749 47.0692 14.1115 46.5827 14.0085C46.0998 13.9055 45.6026 13.854 45.0913 13.854C44.207 13.854 43.4347 13.989 42.7741 14.2589C42.1136 14.5252 41.5632 14.8999 41.1229 15.3828C40.6825 15.8658 40.3523 16.4322 40.1321 17.082C39.9155 17.7283 39.8054 18.4332 39.8018 19.1967C39.8054 20.0384 39.9226 20.7841 40.1534 21.4339C40.3878 22.0803 40.7322 22.6236 41.1868 23.0639C41.6413 23.5043 42.2024 23.8381 42.87 24.0653C43.5376 24.2926 44.3047 24.4062 45.1712 24.4062C45.5795 24.4062 45.979 24.3761 46.3697 24.3157C46.7603 24.2589 47.1136 24.1879 47.4297 24.1026C47.7457 24.021 47.9996 23.9411 48.1914 23.8629L48.7188 25.4077C48.495 25.5355 48.1914 25.6545 47.8079 25.7646C47.4279 25.8782 46.9982 25.9688 46.5188 26.0362C46.043 26.1072 45.5529 26.1428 45.0487 26.1428ZM44.8036 21.3274C45.2369 21.3274 45.5813 21.244 45.837 21.0771C46.0962 20.9102 46.2809 20.6634 46.391 20.3366C46.5046 20.0064 46.5579 19.5998 46.5508 19.1168C46.5472 18.6907 46.4922 18.3303 46.3857 18.0355C46.2827 17.7372 46.1033 17.5117 45.8477 17.359C45.5955 17.2028 45.244 17.1246 44.793 17.1246C44.3988 17.1246 44.0632 17.2081 43.7862 17.375C43.5128 17.5419 43.3033 17.7763 43.1577 18.0781C43.0156 18.3764 42.9428 18.728 42.9393 19.1328C42.9428 19.5092 43.0032 19.8661 43.1204 20.2035C43.2376 20.5373 43.4311 20.8089 43.701 21.0185C43.9709 21.2244 44.3384 21.3274 44.8036 21.3274ZM55.6288 18.2699V23H53.3596V14.8182H55.5223V16.2617H55.6182C55.7993 15.7859 56.1029 15.4094 56.529 15.1325C56.9552 14.8519 57.4719 14.7116 58.0791 14.7116C58.6473 14.7116 59.1427 14.8359 59.5653 15.0845C59.9878 15.3331 60.3163 15.6882 60.5507 16.1499C60.7851 16.608 60.9023 17.1548 60.9023 17.7905V23H58.6331V18.1953C58.6366 17.6946 58.5088 17.304 58.2496 17.0234C57.9903 16.7393 57.6334 16.5973 57.1789 16.5973C56.8735 16.5973 56.6036 16.663 56.3692 16.7944C56.1384 16.9258 55.9573 17.1175 55.8259 17.3697C55.6981 17.6183 55.6324 17.9183 55.6288 18.2699ZM66.3874 23.1598C65.56 23.1598 64.8445 22.984 64.2408 22.6325C63.6406 22.2773 63.1772 21.7837 62.8505 21.1516C62.5238 20.516 62.3604 19.7791 62.3604 18.9411C62.3604 18.0959 62.5238 17.3572 62.8505 16.7251C63.1772 16.0895 63.6406 15.5959 64.2408 15.2443C64.8445 14.8892 65.56 14.7116 66.3874 14.7116C67.2148 14.7116 67.9286 14.8892 68.5288 15.2443C69.1325 15.5959 69.5977 16.0895 69.9244 16.7251C70.2511 17.3572 70.4144 18.0959 70.4144 18.9411C70.4144 19.7791 70.2511 20.516 69.9244 21.1516C69.5977 21.7837 69.1325 22.2773 68.5288 22.6325C67.9286 22.984 67.2148 23.1598 66.3874 23.1598ZM66.3981 21.402C66.7745 21.402 67.0888 21.2955 67.3409 21.0824C67.593 20.8658 67.783 20.571 67.9109 20.1982C68.0423 19.8253 68.108 19.4009 68.108 18.9251C68.108 18.4492 68.0423 18.0249 67.9109 17.652C67.783 17.2791 67.593 16.9844 67.3409 16.7678C67.0888 16.5511 66.7745 16.4428 66.3981 16.4428C66.0181 16.4428 65.6985 16.5511 65.4393 16.7678C65.1836 16.9844 64.9901 17.2791 64.8587 17.652C64.7308 18.0249 64.6669 18.4492 64.6669 18.9251C64.6669 19.4009 64.7308 19.8253 64.8587 20.1982C64.9901 20.571 65.1836 20.8658 65.4393 21.0824C65.6985 21.2955 66.0181 21.402 66.3981 21.402ZM76.2418 14.8182V16.5227H71.3146V14.8182H76.2418ZM72.4332 12.858H74.7024V20.4858C74.7024 20.6953 74.7344 20.8587 74.7983 20.9759C74.8622 21.0895 74.951 21.1694 75.0646 21.2156C75.1818 21.2617 75.3168 21.2848 75.4695 21.2848C75.576 21.2848 75.6825 21.2759 75.7891 21.2582C75.8956 21.2369 75.9773 21.2209 76.0341 21.2102L76.391 22.8988C76.2773 22.9343 76.1175 22.9751 75.9116 23.0213C75.7056 23.071 75.4553 23.1012 75.1605 23.1119C74.6136 23.1332 74.1342 23.0604 73.7223 22.8935C73.3139 22.7266 72.9961 22.4673 72.7688 22.1158C72.5415 21.7642 72.4297 21.3203 72.4332 20.7841V12.858ZM77.72 26.0682V14.8182H79.9572V16.1925H80.0584C80.1578 15.9723 80.3017 15.7486 80.4899 15.5213C80.6816 15.2905 80.9302 15.0987 81.2356 14.946C81.5446 14.7898 81.9281 14.7116 82.3862 14.7116C82.9828 14.7116 83.5332 14.8679 84.0375 15.1804C84.5417 15.4893 84.9448 15.9563 85.2466 16.5813C85.5485 17.2028 85.6994 17.9822 85.6994 18.9197C85.6994 19.8324 85.552 20.603 85.2573 21.2315C84.9661 21.8565 84.5684 22.3306 84.0641 22.6538C83.5634 22.9734 83.0023 23.1332 82.3809 23.1332C81.9405 23.1332 81.5659 23.0604 81.2569 22.9148C80.9515 22.7692 80.7012 22.5863 80.5059 22.3661C80.3105 22.1424 80.1614 21.9169 80.0584 21.6896H79.9892V26.0682H77.72ZM79.9412 18.9091C79.9412 19.3956 80.0087 19.82 80.1436 20.1822C80.2786 20.5444 80.4739 20.8267 80.7296 21.0291C80.9853 21.228 81.296 21.3274 81.6618 21.3274C82.0311 21.3274 82.3436 21.2262 82.5993 21.0238C82.8549 20.8178 83.0485 20.5337 83.1799 20.1715C83.3148 19.8058 83.3823 19.3849 83.3823 18.9091C83.3823 18.4368 83.3166 18.0213 83.1852 17.6626C83.0538 17.304 82.8603 17.0234 82.6046 16.821C82.3489 16.6186 82.0346 16.5174 81.6618 16.5174C81.2924 16.5174 80.9799 16.6151 80.7243 16.8104C80.4721 17.0057 80.2786 17.2827 80.1436 17.6413C80.0087 18 79.9412 18.4226 79.9412 18.9091ZM88.3494 26.0682C88.0618 26.0682 87.7919 26.0451 87.5398 25.9989C87.2912 25.9563 87.0852 25.9013 86.9219 25.8338L87.4332 24.1399C87.6996 24.2216 87.9393 24.266 88.1523 24.2731C88.369 24.2802 88.5554 24.2305 88.7116 24.1239C88.8714 24.0174 89.0011 23.8363 89.1005 23.5806L89.2337 23.2344L86.2987 14.8182H88.685L90.3789 20.8267H90.4641L92.174 14.8182H94.5763L91.3963 23.8842C91.2436 24.3246 91.0359 24.7081 90.7731 25.0348C90.5138 25.3651 90.1854 25.619 89.7876 25.7965C89.3899 25.9776 88.9105 26.0682 88.3494 26.0682ZM97.6339 14.8182L99.136 17.6786L100.675 14.8182H103.003L100.633 18.9091L103.067 23H100.75L99.136 20.1715L97.5487 23H95.2049L97.6339 18.9091L95.2901 14.8182H97.6339ZM105.677 23.1385C105.326 23.1385 105.024 23.0142 104.772 22.7656C104.523 22.5135 104.399 22.2116 104.399 21.8601C104.399 21.5121 104.523 21.2138 104.772 20.9652C105.024 20.7166 105.326 20.5923 105.677 20.5923C106.018 20.5923 106.316 20.7166 106.572 20.9652C106.828 21.2138 106.956 21.5121 106.956 21.8601C106.956 22.0945 106.895 22.3093 106.775 22.5046C106.657 22.6964 106.503 22.8509 106.311 22.968C106.119 23.0817 105.908 23.1385 105.677 23.1385ZM108.819 23V14.8182H110.981V16.2617H111.077C111.248 15.7823 111.532 15.4041 111.929 15.1271C112.327 14.8501 112.803 14.7116 113.357 14.7116C113.918 14.7116 114.396 14.8519 114.79 15.1325C115.184 15.4094 115.447 15.7859 115.578 16.2617H115.663C115.83 15.793 116.132 15.4183 116.569 15.1378C117.009 14.8537 117.53 14.7116 118.13 14.7116C118.893 14.7116 119.513 14.9549 119.989 15.4414C120.468 15.9244 120.708 16.6097 120.708 17.4975V23H118.444V17.945C118.444 17.4904 118.323 17.1495 118.082 16.9222C117.84 16.695 117.538 16.5813 117.176 16.5813C116.764 16.5813 116.443 16.7127 116.212 16.9755C115.981 17.2347 115.866 17.5774 115.866 18.0036V23H113.666V17.897C113.666 17.4957 113.551 17.1761 113.32 16.9382C113.092 16.7003 112.792 16.5813 112.419 16.5813C112.167 16.5813 111.94 16.6452 111.738 16.7731C111.539 16.8974 111.381 17.0732 111.264 17.3004C111.146 17.5241 111.088 17.7869 111.088 18.0888V23H108.819ZM126.229 23.1598C125.387 23.1598 124.663 22.9893 124.056 22.6484C123.452 22.304 122.987 21.8175 122.66 21.1889C122.333 20.5568 122.17 19.8093 122.17 18.9464C122.17 18.1048 122.333 17.3661 122.66 16.7305C122.987 16.0948 123.447 15.5994 124.04 15.2443C124.636 14.8892 125.336 14.7116 126.138 14.7116C126.678 14.7116 127.181 14.7987 127.646 14.9727C128.115 15.1431 128.523 15.4006 128.871 15.745C129.223 16.0895 129.496 16.5227 129.691 17.0447C129.887 17.5632 129.984 18.1705 129.984 18.8665V19.4897H123.076V18.0835H127.848C127.848 17.7567 127.777 17.4673 127.635 17.2152C127.493 16.9631 127.296 16.766 127.044 16.6239C126.795 16.4783 126.506 16.4055 126.176 16.4055C125.831 16.4055 125.526 16.4854 125.259 16.6452C124.997 16.8015 124.791 17.0128 124.642 17.2791C124.492 17.5419 124.416 17.8349 124.413 18.158V19.495C124.413 19.8999 124.487 20.2496 124.636 20.5444C124.789 20.8391 125.004 21.0664 125.281 21.2262C125.558 21.386 125.886 21.4659 126.266 21.4659C126.518 21.4659 126.749 21.4304 126.959 21.3594C127.168 21.2884 127.348 21.1818 127.497 21.0398C127.646 20.8977 127.759 20.7237 127.838 20.5178L129.936 20.6562C129.83 21.1605 129.611 21.6009 129.281 21.9773C128.954 22.3501 128.532 22.6413 128.013 22.8509C127.498 23.0568 126.904 23.1598 126.229 23.1598Z" fill="white"/>
<path d="M12.2023 9.41354C14.9538 11.4664 17.9133 15.6288 19 17.8624C20.0867 15.6288 23.0462 11.4664 25.7977 9.41354C27.7831 7.93232 31 6.78622 31 10.4332C31 11.1615 30.5798 16.5517 30.3333 17.4268C29.4766 20.4691 26.3549 21.2451 23.578 20.7755C28.4319 21.5964 29.6666 24.3157 27 27.035C21.9355 32.1994 19.7209 25.7392 19.1534 24.0839C19.0494 23.7804 19.0007 23.6384 19 23.7592C18.9993 23.6384 18.9506 23.7804 18.8466 24.0839C18.2791 25.7392 16.0645 32.1994 11 27.035C8.33334 24.3157 9.56808 21.5964 14.422 20.7755C11.6451 21.2451 8.52339 20.4691 7.66667 17.4268C7.42022 16.5517 7 11.1615 7 10.4332C7 6.78622 10.217 7.93232 12.2023 9.41354Z" fill="white"/>
</g>
<defs>
<clipPath id="clip0_329_25">
<rect width="134" height="37" fill="white"/>
</clipPath>
</defs>
</svg>
