<svg width="134" height="37" viewBox="0 0 134 37" fill="none" xmlns="http://www.w3.org/2000/svg">
<path d="M0 0H126C130.418 0 134 3.58172 134 8V29C134 33.4183 130.418 37 126 37H0V0Z" fill="#2131C6"/>
<path d="M47.9162 27.2614C46.723 27.2614 45.6624 27.0985 44.7344 26.7727C43.8101 26.4508 43.0298 25.9754 42.3935 25.3466C41.7571 24.7216 41.2741 23.9583 40.9446 23.0568C40.6151 22.1553 40.4484 21.125 40.4446 19.9659C40.4484 18.8333 40.617 17.8125 40.9503 16.9034C41.2836 15.9905 41.7704 15.2102 42.4105 14.5625C43.0507 13.911 43.8329 13.411 44.7571 13.0625C45.6813 12.714 46.7325 12.5398 47.9105 12.5398C49.0204 12.5398 50.0033 12.7083 50.8594 13.0455C51.7192 13.3826 52.4446 13.8523 53.0355 14.4545C53.6302 15.053 54.0791 15.7538 54.3821 16.5568C54.6889 17.3561 54.8423 18.2235 54.8423 19.1591C54.8423 19.8068 54.7931 20.4205 54.6946 21C54.5961 21.5758 54.4276 22.0871 54.1889 22.5341C53.9541 22.9811 53.634 23.3371 53.2287 23.6023C52.8234 23.8636 52.3158 24.0057 51.706 24.0284C51.3234 24.0473 50.9882 24.0114 50.7003 23.9205C50.4124 23.8295 50.1795 23.6875 50.0014 23.4943C49.8272 23.2973 49.7173 23.0568 49.6719 22.7727H49.6037C49.5166 23 49.3518 23.2083 49.1094 23.3977C48.8707 23.5833 48.5753 23.7292 48.223 23.8352C47.8707 23.9375 47.4787 23.9792 47.0469 23.9602C46.5848 23.9375 46.1567 23.8314 45.7628 23.642C45.3726 23.4489 45.0317 23.1799 44.7401 22.8352C44.4522 22.4867 44.2287 22.0663 44.0696 21.5739C43.9105 21.0814 43.831 20.5227 43.831 19.8977C43.831 19.2879 43.9181 18.75 44.0923 18.2841C44.2666 17.8182 44.4995 17.4205 44.7912 17.0909C45.0866 16.7614 45.42 16.5038 45.7912 16.3182C46.1624 16.1288 46.545 16.0076 46.9389 15.9545C47.348 15.8977 47.7325 15.9034 48.0923 15.9716C48.4522 16.0398 48.7514 16.1439 48.9901 16.2841C49.2325 16.4242 49.384 16.5777 49.4446 16.7443H49.5241V16.108H51.1094V21.517C51.1132 21.8011 51.1813 22.0303 51.3139 22.2045C51.4503 22.3788 51.6397 22.4659 51.8821 22.4659C52.1851 22.4659 52.4295 22.3466 52.6151 22.108C52.8045 21.8655 52.9408 21.4943 53.0241 20.9943C53.1113 20.4905 53.1529 19.8466 53.1491 19.0625C53.1529 18.4186 53.0677 17.8352 52.8935 17.3125C52.723 16.786 52.4806 16.3239 52.1662 15.9261C51.8518 15.5284 51.4749 15.197 51.0355 14.9318C50.5999 14.6629 50.1151 14.4602 49.581 14.3239C49.0469 14.1875 48.4768 14.1193 47.8707 14.1193C46.9427 14.1193 46.1264 14.2614 45.4219 14.5455C44.7173 14.8258 44.1264 15.2254 43.6491 15.7443C43.1757 16.2633 42.8177 16.8788 42.5753 17.5909C42.3366 18.2992 42.2173 19.0833 42.2173 19.9432C42.2173 20.8636 42.3423 21.6799 42.5923 22.392C42.8461 23.1004 43.2173 23.697 43.706 24.1818C44.1946 24.6667 44.7988 25.0341 45.5185 25.2841C46.242 25.5341 47.0734 25.6591 48.0128 25.6591C48.4446 25.6591 48.867 25.625 49.2798 25.5568C49.6927 25.4886 50.0639 25.4091 50.3935 25.3182C50.723 25.2273 50.9768 25.1477 51.1548 25.0795L51.6378 26.5227C51.4029 26.6439 51.0848 26.7614 50.6832 26.875C50.2855 26.9886 49.8461 27.0814 49.3651 27.1534C48.8878 27.2254 48.4048 27.2614 47.9162 27.2614ZM47.5185 22.3295C47.9995 22.3295 48.384 22.2367 48.6719 22.0511C48.9598 21.8617 49.1662 21.5814 49.2912 21.2102C49.4162 20.839 49.4768 20.3769 49.473 19.8239C49.473 19.3087 49.4086 18.8864 49.2798 18.5568C49.151 18.2273 48.9446 17.983 48.6605 17.8239C48.3764 17.6648 47.9995 17.5852 47.5298 17.5852C47.1056 17.5852 46.7438 17.6818 46.4446 17.875C46.1491 18.0682 45.9219 18.3352 45.7628 18.6761C45.6075 19.0133 45.5298 19.3977 45.5298 19.8295C45.5298 20.2614 45.5923 20.6686 45.7173 21.0511C45.8461 21.4299 46.0545 21.7386 46.3423 21.9773C46.634 22.2121 47.026 22.3295 47.5185 22.3295ZM56.5881 27.2727V15.2727H58.6108V16.7159H58.7301C58.8362 16.5038 58.9858 16.2784 59.179 16.0398C59.3722 15.7973 59.6335 15.5909 59.9631 15.4205C60.2926 15.2462 60.7131 15.1591 61.2244 15.1591C61.8987 15.1591 62.5066 15.3314 63.0483 15.6761C63.5938 16.017 64.0256 16.5227 64.3438 17.1932C64.6657 17.8598 64.8267 18.678 64.8267 19.6477C64.8267 20.6061 64.6695 21.4205 64.3551 22.0909C64.0407 22.7614 63.6127 23.2727 63.071 23.625C62.5294 23.9773 61.9157 24.1534 61.2301 24.1534C60.7301 24.1534 60.3153 24.0701 59.9858 23.9034C59.6563 23.7367 59.3911 23.536 59.1903 23.3011C58.9934 23.0625 58.84 22.8371 58.7301 22.625H58.6449V27.2727H56.5881ZM58.6051 19.6364C58.6051 20.2008 58.6847 20.6951 58.8438 21.1193C59.0066 21.5436 59.2396 21.875 59.5426 22.1136C59.8494 22.3485 60.2206 22.4659 60.6562 22.4659C61.1108 22.4659 61.4915 22.3447 61.7983 22.1023C62.1051 21.8561 62.3362 21.5208 62.4915 21.0966C62.6506 20.6686 62.7301 20.1818 62.7301 19.6364C62.7301 19.0947 62.6525 18.6136 62.4972 18.1932C62.3419 17.7727 62.1108 17.4432 61.804 17.2045C61.4972 16.9659 61.1146 16.8466 60.6562 16.8466C60.2169 16.8466 59.8438 16.9621 59.5369 17.1932C59.2301 17.4242 58.9972 17.7481 58.8381 18.1648C58.6828 18.5814 58.6051 19.072 58.6051 19.6364ZM67.5696 27.2727C67.2893 27.2727 67.0298 27.25 66.7912 27.2045C66.5563 27.1629 66.3688 27.1136 66.2287 27.0568L66.706 25.4545C67.0052 25.5417 67.2723 25.5833 67.5071 25.5795C67.742 25.5758 67.9484 25.5019 68.1264 25.358C68.3082 25.2178 68.4616 24.983 68.5866 24.6534L68.7628 24.1818L65.598 15.2727H67.7798L69.7912 21.8636H69.8821L71.8991 15.2727H74.0866L70.5923 25.0568C70.4295 25.5189 70.2135 25.9148 69.9446 26.2443C69.6757 26.5777 69.3461 26.8314 68.956 27.0057C68.5696 27.1837 68.1075 27.2727 67.5696 27.2727ZM77.1918 15.2727L78.9531 18.4943L80.7429 15.2727H82.919L80.2884 19.6364L82.9645 24H80.7997L78.9531 20.858L77.1236 24H74.9418L77.6009 19.6364L75.0099 15.2727H77.1918ZM88.9304 15.2727V16.8636H83.7713V15.2727H88.9304ZM85.0611 24V14.4489C85.0611 13.8617 85.1823 13.3731 85.4247 12.983C85.6709 12.5928 86.0005 12.3011 86.4134 12.108C86.8262 11.9148 87.2846 11.8182 87.7884 11.8182C88.1444 11.8182 88.4607 11.8466 88.7372 11.9034C89.0137 11.9602 89.2183 12.0114 89.3509 12.0568L88.9418 13.6477C88.8546 13.6212 88.7448 13.5947 88.6122 13.5682C88.4796 13.5379 88.3319 13.5227 88.169 13.5227C87.7865 13.5227 87.5156 13.6155 87.3565 13.8011C87.2012 13.983 87.1236 14.2443 87.1236 14.5852V24H85.0611ZM92.598 12.3636V24H90.5412V12.3636H92.598ZM100.276 20.3295V15.2727H102.332V24H100.338V22.4489H100.247C100.05 22.9375 99.7263 23.3371 99.2756 23.6477C98.8286 23.9583 98.2775 24.1136 97.6222 24.1136C97.0502 24.1136 96.5445 23.9867 96.1051 23.733C95.6695 23.4754 95.3286 23.1023 95.0824 22.6136C94.8362 22.1212 94.7131 21.5265 94.7131 20.8295V15.2727H96.7699V20.5114C96.7699 21.0644 96.9214 21.5038 97.2244 21.8295C97.5275 22.1553 97.9252 22.3182 98.4176 22.3182C98.7206 22.3182 99.0142 22.2443 99.2983 22.0966C99.5824 21.9489 99.8153 21.7292 99.9972 21.4375C100.183 21.142 100.276 20.7727 100.276 20.3295ZM108.868 15.2727V16.8636H103.709V15.2727H108.868ZM104.999 24V14.4489C104.999 13.8617 105.12 13.3731 105.362 12.983C105.608 12.5928 105.938 12.3011 106.351 12.108C106.764 11.9148 107.222 11.8182 107.726 11.8182C108.082 11.8182 108.398 11.8466 108.675 11.9034C108.951 11.9602 109.156 12.0114 109.288 12.0568L108.879 13.6477C108.792 13.6212 108.682 13.5947 108.55 13.5682C108.417 13.5379 108.269 13.5227 108.107 13.5227C107.724 13.5227 107.453 13.6155 107.294 13.8011C107.139 13.983 107.061 14.2443 107.061 14.5852V24H104.999ZM114.899 15.2727V16.8636H109.74V15.2727H114.899ZM111.03 24V14.4489C111.03 13.8617 111.151 13.3731 111.393 12.983C111.64 12.5928 111.969 12.3011 112.382 12.108C112.795 11.9148 113.253 11.8182 113.757 11.8182C114.113 11.8182 114.429 11.8466 114.706 11.9034C114.982 11.9602 115.187 12.0114 115.32 12.0568L114.911 13.6477C114.823 13.6212 114.714 13.5947 114.581 13.5682C114.448 13.5379 114.301 13.5227 114.138 13.5227C113.755 13.5227 113.484 13.6155 113.325 13.8011C113.17 13.983 113.092 14.2443 113.092 14.5852V24H111.03Z" fill="white"/>
<path d="M20.452 21.517L11.3695 19.084L10 24.1975L24.196 28L26.206 20.5075L21.0925 19.135L20.452 21.517ZM13.804 10L11.7955 17.494L16.9075 18.8665L17.548 16.483L26.6305 18.9175L28 13.804L13.804 10Z" fill="white"/>
</svg>
