<svg width="134" height="37" viewBox="0 0 134 37" fill="none" xmlns="http://www.w3.org/2000/svg">
<path d="M0 8C0 3.58172 3.58172 0 8 0H134V37H8C3.58172 37 0 33.4183 0 29V8Z" fill="#4146CA"/>
<path d="M47.5646 27.2614C46.3714 27.2614 45.3108 27.0985 44.3828 26.7727C43.4586 26.4508 42.6783 25.9754 42.0419 25.3466C41.4055 24.7216 40.9226 23.9583 40.593 23.0568C40.2635 22.1553 40.0968 21.125 40.093 19.9659C40.0968 18.8333 40.2654 17.8125 40.5987 16.9034C40.9321 15.9905 41.4188 15.2102 42.0589 14.5625C42.6991 13.911 43.4813 13.411 44.4055 13.0625C45.3298 12.714 46.3809 12.5398 47.5589 12.5398C48.6688 12.5398 49.6518 12.7083 50.5078 13.0455C51.3677 13.3826 52.093 13.8523 52.6839 14.4545C53.2786 15.053 53.7275 15.7538 54.0305 16.5568C54.3374 17.3561 54.4908 18.2235 54.4908 19.1591C54.4908 19.8068 54.4415 20.4205 54.343 21C54.2446 21.5758 54.076 22.0871 53.8374 22.5341C53.6025 22.9811 53.2824 23.3371 52.8771 23.6023C52.4718 23.8636 51.9643 24.0057 51.3544 24.0284C50.9718 24.0473 50.6366 24.0114 50.3487 23.9205C50.0608 23.8295 49.8279 23.6875 49.6499 23.4943C49.4756 23.2973 49.3658 23.0568 49.3203 22.7727H49.2521C49.165 23 49.0002 23.2083 48.7578 23.3977C48.5192 23.5833 48.2237 23.7292 47.8714 23.8352C47.5192 23.9375 47.1271 23.9792 46.6953 23.9602C46.2332 23.9375 45.8052 23.8314 45.4112 23.642C45.0211 23.4489 44.6802 23.1799 44.3885 22.8352C44.1006 22.4867 43.8771 22.0663 43.718 21.5739C43.5589 21.0814 43.4794 20.5227 43.4794 19.8977C43.4794 19.2879 43.5665 18.75 43.7408 18.2841C43.915 17.8182 44.148 17.4205 44.4396 17.0909C44.7351 16.7614 45.0684 16.5038 45.4396 16.3182C45.8108 16.1288 46.1934 16.0076 46.5874 15.9545C46.9964 15.8977 47.3809 15.9034 47.7408 15.9716C48.1006 16.0398 48.3999 16.1439 48.6385 16.2841C48.8809 16.4242 49.0324 16.5777 49.093 16.7443H49.1726V16.108H50.7578V21.517C50.7616 21.8011 50.8298 22.0303 50.9624 22.2045C51.0987 22.3788 51.2881 22.4659 51.5305 22.4659C51.8336 22.4659 52.0779 22.3466 52.2635 22.108C52.4529 21.8655 52.5893 21.4943 52.6726 20.9943C52.7597 20.4905 52.8014 19.8466 52.7976 19.0625C52.8014 18.4186 52.7161 17.8352 52.5419 17.3125C52.3714 16.786 52.129 16.3239 51.8146 15.9261C51.5002 15.5284 51.1233 15.197 50.6839 14.9318C50.2483 14.6629 49.7635 14.4602 49.2294 14.3239C48.6953 14.1875 48.1252 14.1193 47.5192 14.1193C46.5911 14.1193 45.7749 14.2614 45.0703 14.5455C44.3658 14.8258 43.7749 15.2254 43.2976 15.7443C42.8241 16.2633 42.4661 16.8788 42.2237 17.5909C41.9851 18.2992 41.8658 19.0833 41.8658 19.9432C41.8658 20.8636 41.9908 21.6799 42.2408 22.392C42.4946 23.1004 42.8658 23.697 43.3544 24.1818C43.843 24.6667 44.4472 25.0341 45.1669 25.2841C45.8904 25.5341 46.7218 25.6591 47.6612 25.6591C48.093 25.6591 48.5154 25.625 48.9283 25.5568C49.3411 25.4886 49.7124 25.4091 50.0419 25.3182C50.3714 25.2273 50.6252 25.1477 50.8033 25.0795L51.2862 26.5227C51.0514 26.6439 50.7332 26.7614 50.3317 26.875C49.9339 26.9886 49.4946 27.0814 49.0135 27.1534C48.5362 27.2254 48.0533 27.2614 47.5646 27.2614ZM47.1669 22.3295C47.648 22.3295 48.0324 22.2367 48.3203 22.0511C48.6082 21.8617 48.8146 21.5814 48.9396 21.2102C49.0646 20.839 49.1252 20.3769 49.1214 19.8239C49.1214 19.3087 49.0571 18.8864 48.9283 18.5568C48.7995 18.2273 48.593 17.983 48.3089 17.8239C48.0249 17.6648 47.648 17.5852 47.1783 17.5852C46.754 17.5852 46.3923 17.6818 46.093 17.875C45.7976 18.0682 45.5703 18.3352 45.4112 18.6761C45.2559 19.0133 45.1783 19.3977 45.1783 19.8295C45.1783 20.2614 45.2408 20.6686 45.3658 21.0511C45.4946 21.4299 45.7029 21.7386 45.9908 21.9773C46.2824 22.2121 46.6745 22.3295 47.1669 22.3295ZM56.2365 27.2727V15.2727H58.2592V16.7159H58.3786C58.4846 16.5038 58.6342 16.2784 58.8274 16.0398C59.0206 15.7973 59.282 15.5909 59.6115 15.4205C59.9411 15.2462 60.3615 15.1591 60.8729 15.1591C61.5471 15.1591 62.1551 15.3314 62.6967 15.6761C63.2422 16.017 63.674 16.5227 63.9922 17.1932C64.3142 17.8598 64.4751 18.678 64.4751 19.6477C64.4751 20.6061 64.3179 21.4205 64.0036 22.0909C63.6892 22.7614 63.2611 23.2727 62.7195 23.625C62.1778 23.9773 61.5642 24.1534 60.8786 24.1534C60.3786 24.1534 59.9638 24.0701 59.6342 23.9034C59.3047 23.7367 59.0395 23.536 58.8388 23.3011C58.6418 23.0625 58.4884 22.8371 58.3786 22.625H58.2933V27.2727H56.2365ZM58.2536 19.6364C58.2536 20.2008 58.3331 20.6951 58.4922 21.1193C58.6551 21.5436 58.888 21.875 59.1911 22.1136C59.4979 22.3485 59.8691 22.4659 60.3047 22.4659C60.7592 22.4659 61.1399 22.3447 61.4467 22.1023C61.7536 21.8561 61.9846 21.5208 62.1399 21.0966C62.299 20.6686 62.3786 20.1818 62.3786 19.6364C62.3786 19.0947 62.3009 18.6136 62.1456 18.1932C61.9903 17.7727 61.7592 17.4432 61.4524 17.2045C61.1456 16.9659 60.763 16.8466 60.3047 16.8466C59.8653 16.8466 59.4922 16.9621 59.1854 17.1932C58.8786 17.4242 58.6456 17.7481 58.4865 18.1648C58.3312 18.5814 58.2536 19.072 58.2536 19.6364ZM67.218 27.2727C66.9377 27.2727 66.6783 27.25 66.4396 27.2045C66.2048 27.1629 66.0173 27.1136 65.8771 27.0568L66.3544 25.4545C66.6536 25.5417 66.9207 25.5833 67.1555 25.5795C67.3904 25.5758 67.5968 25.5019 67.7749 25.358C67.9567 25.2178 68.1101 24.983 68.2351 24.6534L68.4112 24.1818L65.2464 15.2727H67.4283L69.4396 21.8636H69.5305L71.5476 15.2727H73.7351L70.2408 25.0568C70.0779 25.5189 69.862 25.9148 69.593 26.2443C69.3241 26.5777 68.9946 26.8314 68.6044 27.0057C68.218 27.1837 67.7559 27.2727 67.218 27.2727ZM76.8402 15.2727L78.6016 18.4943L80.3913 15.2727H82.5675L79.9368 19.6364L82.6129 24H80.4482L78.6016 20.858L76.772 24H74.5902L77.2493 19.6364L74.6584 15.2727H76.8402ZM88.5788 15.2727V16.8636H83.4197V15.2727H88.5788ZM84.7095 24V14.4489C84.7095 13.8617 84.8307 13.3731 85.0732 12.983C85.3194 12.5928 85.6489 12.3011 86.0618 12.108C86.4747 11.9148 86.933 11.8182 87.4368 11.8182C87.7929 11.8182 88.1091 11.8466 88.3857 11.9034C88.6622 11.9602 88.8667 12.0114 88.9993 12.0568L88.5902 13.6477C88.5031 13.6212 88.3932 13.5947 88.2607 13.5682C88.1281 13.5379 87.9804 13.5227 87.8175 13.5227C87.4349 13.5227 87.1641 13.6155 87.005 13.8011C86.8497 13.983 86.772 14.2443 86.772 14.5852V24H84.7095ZM92.2464 12.3636V24H90.1896V12.3636H92.2464ZM98.1683 24.1705C97.3161 24.1705 96.5774 23.983 95.9524 23.608C95.3274 23.233 94.8426 22.7083 94.4979 22.0341C94.157 21.3598 93.9865 20.572 93.9865 19.6705C93.9865 18.7689 94.157 17.9792 94.4979 17.3011C94.8426 16.6231 95.3274 16.0966 95.9524 15.7216C96.5774 15.3466 97.3161 15.1591 98.1683 15.1591C99.0206 15.1591 99.7592 15.3466 100.384 15.7216C101.009 16.0966 101.492 16.6231 101.833 17.3011C102.178 17.9792 102.35 18.7689 102.35 19.6705C102.35 20.572 102.178 21.3598 101.833 22.0341C101.492 22.7083 101.009 23.233 100.384 23.608C99.7592 23.983 99.0206 24.1705 98.1683 24.1705ZM98.1797 22.5227C98.6418 22.5227 99.0282 22.3958 99.3388 22.142C99.6494 21.8845 99.8804 21.5398 100.032 21.108C100.187 20.6761 100.265 20.1951 100.265 19.6648C100.265 19.1307 100.187 18.6477 100.032 18.2159C99.8804 17.7803 99.6494 17.4337 99.3388 17.1761C99.0282 16.9186 98.6418 16.7898 98.1797 16.7898C97.7062 16.7898 97.3123 16.9186 96.9979 17.1761C96.6873 17.4337 96.4543 17.7803 96.299 18.2159C96.1475 18.6477 96.0717 19.1307 96.0717 19.6648C96.0717 20.1951 96.1475 20.6761 96.299 21.108C96.4543 21.5398 96.6873 21.8845 96.9979 22.142C97.3123 22.3958 97.7062 22.5227 98.1797 22.5227ZM107.903 24.1705C107.05 24.1705 106.312 23.983 105.687 23.608C105.062 23.233 104.577 22.7083 104.232 22.0341C103.891 21.3598 103.721 20.572 103.721 19.6705C103.721 18.7689 103.891 17.9792 104.232 17.3011C104.577 16.6231 105.062 16.0966 105.687 15.7216C106.312 15.3466 107.05 15.1591 107.903 15.1591C108.755 15.1591 109.494 15.3466 110.119 15.7216C110.744 16.0966 111.227 16.6231 111.567 17.3011C111.912 17.9792 112.085 18.7689 112.085 19.6705C112.085 20.572 111.912 21.3598 111.567 22.0341C111.227 22.7083 110.744 23.233 110.119 23.608C109.494 23.983 108.755 24.1705 107.903 24.1705ZM107.914 22.5227C108.376 22.5227 108.763 22.3958 109.073 22.142C109.384 21.8845 109.615 21.5398 109.766 21.108C109.922 20.6761 109.999 20.1951 109.999 19.6648C109.999 19.1307 109.922 18.6477 109.766 18.2159C109.615 17.7803 109.384 17.4337 109.073 17.1761C108.763 16.9186 108.376 16.7898 107.914 16.7898C107.441 16.7898 107.047 16.9186 106.732 17.1761C106.422 17.4337 106.189 17.7803 106.033 18.2159C105.882 18.6477 105.806 19.1307 105.806 19.6648C105.806 20.1951 105.882 20.6761 106.033 21.108C106.189 21.5398 106.422 21.8845 106.732 22.142C107.047 22.3958 107.441 22.5227 107.914 22.5227ZM118.251 15.2727V16.8636H113.092V15.2727H118.251ZM114.381 24V14.4489C114.381 13.8617 114.503 13.3731 114.745 12.983C114.991 12.5928 115.321 12.3011 115.734 12.108C116.147 11.9148 116.605 11.8182 117.109 11.8182C117.465 11.8182 117.781 11.8466 118.058 11.9034C118.334 11.9602 118.539 12.0114 118.671 12.0568L118.262 13.6477C118.175 13.6212 118.065 13.5947 117.933 13.5682C117.8 13.5379 117.652 13.5227 117.489 13.5227C117.107 13.5227 116.836 13.6155 116.677 13.8011C116.522 13.983 116.444 14.2443 116.444 14.5852V24H114.381Z" fill="white"/>
<path d="M23.9308 12.2435C22.6342 11.6578 21.2658 11.2402 19.8599 11.001C19.8471 10.9987 19.8339 11.0004 19.8222 11.0058C19.8104 11.0113 19.8008 11.0203 19.7945 11.0315C19.6187 11.3392 19.4239 11.7406 19.2876 12.056C17.7503 11.8295 16.2209 11.8295 14.7152 12.056C14.5789 11.7335 14.3771 11.3392 14.2005 11.0315C14.194 11.0205 14.1842 11.0118 14.1725 11.0064C14.1609 11.0009 14.1478 10.9991 14.1351 11.0011C12.7291 11.2397 11.3606 11.6573 10.0641 12.2434C10.053 12.248 10.0436 12.256 10.0373 12.2661C7.4445 16.0776 6.73417 19.7955 7.08267 23.4672C7.08366 23.4762 7.08646 23.4849 7.09093 23.4928C7.0954 23.5007 7.10143 23.5077 7.10867 23.5132C8.81933 24.7494 10.4764 25.4999 12.1027 25.9973C12.1154 26.001 12.1289 26.0008 12.1414 25.9968C12.154 25.9927 12.165 25.985 12.1729 25.9746C12.5576 25.4577 12.9005 24.9126 13.1946 24.3394C13.1986 24.3316 13.2009 24.323 13.2013 24.3142C13.2018 24.3054 13.2003 24.2966 13.197 24.2885C13.1937 24.2803 13.1887 24.2729 13.1823 24.2667C13.176 24.2606 13.1683 24.2558 13.1599 24.2528C12.6159 24.0497 12.098 23.8022 11.5997 23.5211C11.5907 23.5159 11.583 23.5085 11.5775 23.4996C11.572 23.4908 11.5688 23.4808 11.5682 23.4704C11.5676 23.4601 11.5695 23.4497 11.5739 23.4403C11.5783 23.4309 11.585 23.4227 11.5934 23.4164C11.6982 23.3391 11.8032 23.2587 11.9032 23.1775C11.9121 23.1702 11.9229 23.1656 11.9343 23.1641C11.9458 23.1626 11.9574 23.1642 11.9679 23.1688C15.2411 24.6393 18.7846 24.6393 22.0191 23.1688C22.0296 23.1639 22.0413 23.162 22.0529 23.1634C22.0645 23.1648 22.0754 23.1694 22.0845 23.1766C22.1846 23.2578 22.2895 23.3391 22.3951 23.4164C22.4036 23.4226 22.4103 23.4308 22.4147 23.4401C22.4192 23.4495 22.4212 23.4598 22.4207 23.4702C22.4202 23.4805 22.417 23.4905 22.4116 23.4994C22.4062 23.5083 22.3987 23.5157 22.3896 23.521C21.8912 23.8075 21.3691 24.052 20.8288 24.252C20.8204 24.2551 20.8128 24.26 20.8065 24.2662C20.8001 24.2725 20.7952 24.28 20.792 24.2882C20.7888 24.2965 20.7874 24.3053 20.7879 24.3141C20.7884 24.323 20.7908 24.3316 20.7949 24.3394C21.0952 24.9118 21.4382 25.4569 21.8157 25.9738C21.8234 25.9845 21.8344 25.9925 21.847 25.9967C21.8596 26.0009 21.8732 26.0011 21.8859 25.9973C23.5201 25.4998 25.1771 24.7493 26.8878 23.5132C26.8952 23.5079 26.9013 23.5012 26.9058 23.4934C26.9103 23.4856 26.9131 23.4769 26.9139 23.468C27.3309 19.223 26.2154 15.5356 23.9568 12.2668C23.9513 12.2562 23.942 12.248 23.9308 12.2435ZM13.6833 21.2315C12.6979 21.2315 11.8859 20.3413 11.8859 19.248C11.8859 18.1548 12.6822 17.2646 13.6834 17.2646C14.6924 17.2646 15.4965 18.1626 15.4807 19.2481C15.4807 20.3413 14.6845 21.2315 13.6833 21.2315ZM20.329 21.2315C19.3436 21.2315 18.5316 20.3413 18.5316 19.248C18.5316 18.1548 19.3277 17.2646 20.329 17.2646C21.338 17.2646 22.1421 18.1626 22.1263 19.2481C22.1263 20.3413 21.338 21.2315 20.329 21.2315Z" fill="white"/>
</svg>
