<svg width="134" height="37" viewBox="0 0 134 37" fill="none" xmlns="http://www.w3.org/2000/svg">
<path d="M0 0H134V37H0V0Z" fill="#1791E9"/>
<path d="M48.4162 27.2614C47.223 27.2614 46.1624 27.0985 45.2344 26.7727C44.3101 26.4508 43.5298 25.9754 42.8935 25.3466C42.2571 24.7216 41.7741 23.9583 41.4446 23.0568C41.1151 22.1553 40.9484 21.125 40.9446 19.9659C40.9484 18.8333 41.117 17.8125 41.4503 16.9034C41.7836 15.9905 42.2704 15.2102 42.9105 14.5625C43.5507 13.911 44.3329 13.411 45.2571 13.0625C46.1813 12.714 47.2325 12.5398 48.4105 12.5398C49.5204 12.5398 50.5033 12.7083 51.3594 13.0455C52.2192 13.3826 52.9446 13.8523 53.5355 14.4545C54.1302 15.053 54.5791 15.7538 54.8821 16.5568C55.1889 17.3561 55.3423 18.2235 55.3423 19.1591C55.3423 19.8068 55.2931 20.4205 55.1946 21C55.0961 21.5758 54.9276 22.0871 54.6889 22.5341C54.4541 22.9811 54.134 23.3371 53.7287 23.6023C53.3234 23.8636 52.8158 24.0057 52.206 24.0284C51.8234 24.0473 51.4882 24.0114 51.2003 23.9205C50.9124 23.8295 50.6795 23.6875 50.5014 23.4943C50.3272 23.2973 50.2173 23.0568 50.1719 22.7727H50.1037C50.0166 23 49.8518 23.2083 49.6094 23.3977C49.3707 23.5833 49.0753 23.7292 48.723 23.8352C48.3707 23.9375 47.9787 23.9792 47.5469 23.9602C47.0848 23.9375 46.6567 23.8314 46.2628 23.642C45.8726 23.4489 45.5317 23.1799 45.2401 22.8352C44.9522 22.4867 44.7287 22.0663 44.5696 21.5739C44.4105 21.0814 44.331 20.5227 44.331 19.8977C44.331 19.2879 44.4181 18.75 44.5923 18.2841C44.7666 17.8182 44.9995 17.4205 45.2912 17.0909C45.5866 16.7614 45.92 16.5038 46.2912 16.3182C46.6624 16.1288 47.045 16.0076 47.4389 15.9545C47.848 15.8977 48.2325 15.9034 48.5923 15.9716C48.9522 16.0398 49.2514 16.1439 49.4901 16.2841C49.7325 16.4242 49.884 16.5777 49.9446 16.7443H50.0241V16.108H51.6094V21.517C51.6132 21.8011 51.6813 22.0303 51.8139 22.2045C51.9503 22.3788 52.1397 22.4659 52.3821 22.4659C52.6851 22.4659 52.9295 22.3466 53.1151 22.108C53.3045 21.8655 53.4408 21.4943 53.5241 20.9943C53.6113 20.4905 53.6529 19.8466 53.6491 19.0625C53.6529 18.4186 53.5677 17.8352 53.3935 17.3125C53.223 16.786 52.9806 16.3239 52.6662 15.9261C52.3518 15.5284 51.9749 15.197 51.5355 14.9318C51.0999 14.6629 50.6151 14.4602 50.081 14.3239C49.5469 14.1875 48.9768 14.1193 48.3707 14.1193C47.4427 14.1193 46.6264 14.2614 45.9219 14.5455C45.2173 14.8258 44.6264 15.2254 44.1491 15.7443C43.6757 16.2633 43.3177 16.8788 43.0753 17.5909C42.8366 18.2992 42.7173 19.0833 42.7173 19.9432C42.7173 20.8636 42.8423 21.6799 43.0923 22.392C43.3461 23.1004 43.7173 23.697 44.206 24.1818C44.6946 24.6667 45.2988 25.0341 46.0185 25.2841C46.742 25.5341 47.5734 25.6591 48.5128 25.6591C48.9446 25.6591 49.367 25.625 49.7798 25.5568C50.1927 25.4886 50.5639 25.4091 50.8935 25.3182C51.223 25.2273 51.4768 25.1477 51.6548 25.0795L52.1378 26.5227C51.9029 26.6439 51.5848 26.7614 51.1832 26.875C50.7855 26.9886 50.3461 27.0814 49.8651 27.1534C49.3878 27.2254 48.9048 27.2614 48.4162 27.2614ZM48.0185 22.3295C48.4995 22.3295 48.884 22.2367 49.1719 22.0511C49.4598 21.8617 49.6662 21.5814 49.7912 21.2102C49.9162 20.839 49.9768 20.3769 49.973 19.8239C49.973 19.3087 49.9086 18.8864 49.7798 18.5568C49.651 18.2273 49.4446 17.983 49.1605 17.8239C48.8764 17.6648 48.4995 17.5852 48.0298 17.5852C47.6056 17.5852 47.2438 17.6818 46.9446 17.875C46.6491 18.0682 46.4219 18.3352 46.2628 18.6761C46.1075 19.0133 46.0298 19.3977 46.0298 19.8295C46.0298 20.2614 46.0923 20.6686 46.2173 21.0511C46.3461 21.4299 46.5545 21.7386 46.8423 21.9773C47.134 22.2121 47.526 22.3295 48.0185 22.3295ZM57.0881 27.2727V15.2727H59.1108V16.7159H59.2301C59.3362 16.5038 59.4858 16.2784 59.679 16.0398C59.8722 15.7973 60.1335 15.5909 60.4631 15.4205C60.7926 15.2462 61.2131 15.1591 61.7244 15.1591C62.3987 15.1591 63.0066 15.3314 63.5483 15.6761C64.0938 16.017 64.5256 16.5227 64.8438 17.1932C65.1657 17.8598 65.3267 18.678 65.3267 19.6477C65.3267 20.6061 65.1695 21.4205 64.8551 22.0909C64.5407 22.7614 64.1127 23.2727 63.571 23.625C63.0294 23.9773 62.4157 24.1534 61.7301 24.1534C61.2301 24.1534 60.8153 24.0701 60.4858 23.9034C60.1563 23.7367 59.8911 23.536 59.6903 23.3011C59.4934 23.0625 59.34 22.8371 59.2301 22.625H59.1449V27.2727H57.0881ZM59.1051 19.6364C59.1051 20.2008 59.1847 20.6951 59.3438 21.1193C59.5066 21.5436 59.7396 21.875 60.0426 22.1136C60.3494 22.3485 60.7206 22.4659 61.1562 22.4659C61.6108 22.4659 61.9915 22.3447 62.2983 22.1023C62.6051 21.8561 62.8362 21.5208 62.9915 21.0966C63.1506 20.6686 63.2301 20.1818 63.2301 19.6364C63.2301 19.0947 63.1525 18.6136 62.9972 18.1932C62.8419 17.7727 62.6108 17.4432 62.304 17.2045C61.9972 16.9659 61.6146 16.8466 61.1562 16.8466C60.7169 16.8466 60.3438 16.9621 60.0369 17.1932C59.7301 17.4242 59.4972 17.7481 59.3381 18.1648C59.1828 18.5814 59.1051 19.072 59.1051 19.6364ZM68.0696 27.2727C67.7893 27.2727 67.5298 27.25 67.2912 27.2045C67.0563 27.1629 66.8688 27.1136 66.7287 27.0568L67.206 25.4545C67.5052 25.5417 67.7723 25.5833 68.0071 25.5795C68.242 25.5758 68.4484 25.5019 68.6264 25.358C68.8082 25.2178 68.9616 24.983 69.0866 24.6534L69.2628 24.1818L66.098 15.2727H68.2798L70.2912 21.8636H70.3821L72.3991 15.2727H74.5866L71.0923 25.0568C70.9295 25.5189 70.7135 25.9148 70.4446 26.2443C70.1757 26.5777 69.8461 26.8314 69.456 27.0057C69.0696 27.1837 68.6075 27.2727 68.0696 27.2727ZM77.6918 15.2727L79.4531 18.4943L81.2429 15.2727H83.419L80.7884 19.6364L83.4645 24H81.2997L79.4531 20.858L77.6236 24H75.4418L78.1009 19.6364L75.5099 15.2727H77.6918ZM89.4304 15.2727V16.8636H84.2713V15.2727H89.4304ZM85.5611 24V14.4489C85.5611 13.8617 85.6823 13.3731 85.9247 12.983C86.1709 12.5928 86.5005 12.3011 86.9134 12.108C87.3262 11.9148 87.7846 11.8182 88.2884 11.8182C88.6444 11.8182 88.9607 11.8466 89.2372 11.9034C89.5137 11.9602 89.7183 12.0114 89.8509 12.0568L89.4418 13.6477C89.3546 13.6212 89.2448 13.5947 89.1122 13.5682C88.9796 13.5379 88.8319 13.5227 88.669 13.5227C88.2865 13.5227 88.0156 13.6155 87.8565 13.8011C87.7012 13.983 87.6236 14.2443 87.6236 14.5852V24H85.5611ZM93.098 12.3636V24H91.0412V12.3636H93.098ZM100.776 20.3295V15.2727H102.832V24H100.838V22.4489H100.747C100.55 22.9375 100.226 23.3371 99.7756 23.6477C99.3286 23.9583 98.7775 24.1136 98.1222 24.1136C97.5502 24.1136 97.0445 23.9867 96.6051 23.733C96.1695 23.4754 95.8286 23.1023 95.5824 22.6136C95.3362 22.1212 95.2131 21.5265 95.2131 20.8295V15.2727H97.2699V20.5114C97.2699 21.0644 97.4214 21.5038 97.7244 21.8295C98.0275 22.1553 98.4252 22.3182 98.9176 22.3182C99.2206 22.3182 99.5142 22.2443 99.7983 22.0966C100.082 21.9489 100.315 21.7292 100.497 21.4375C100.683 21.142 100.776 20.7727 100.776 20.3295ZM109.368 15.2727V16.8636H104.209V15.2727H109.368ZM105.499 24V14.4489C105.499 13.8617 105.62 13.3731 105.862 12.983C106.108 12.5928 106.438 12.3011 106.851 12.108C107.264 11.9148 107.722 11.8182 108.226 11.8182C108.582 11.8182 108.898 11.8466 109.175 11.9034C109.451 11.9602 109.656 12.0114 109.788 12.0568L109.379 13.6477C109.292 13.6212 109.182 13.5947 109.05 13.5682C108.917 13.5379 108.769 13.5227 108.607 13.5227C108.224 13.5227 107.953 13.6155 107.794 13.8011C107.639 13.983 107.561 14.2443 107.561 14.5852V24H105.499ZM115.399 15.2727V16.8636H110.24V15.2727H115.399ZM111.53 24V14.4489C111.53 13.8617 111.651 13.3731 111.893 12.983C112.14 12.5928 112.469 12.3011 112.882 12.108C113.295 11.9148 113.753 11.8182 114.257 11.8182C114.613 11.8182 114.929 11.8466 115.206 11.9034C115.482 11.9602 115.687 12.0114 115.82 12.0568L115.411 13.6477C115.323 13.6212 115.214 13.5947 115.081 13.5682C114.948 13.5379 114.801 13.5227 114.638 13.5227C114.255 13.5227 113.984 13.6155 113.825 13.8011C113.67 13.983 113.592 14.2443 113.592 14.5852V24H111.53Z" fill="white"/>
<path d="M26.1508 14.7401C26.1613 14.9024 26.1613 15.0683 26.1613 15.2306C26.1613 20.233 22.4488 26 15.6637 26C13.5719 26 11.6313 25.3797 10 24.3013C10.2953 24.3373 10.5836 24.3482 10.8895 24.3482C12.6156 24.3482 14.2012 23.7495 15.4703 22.7324C13.8496 22.6963 12.4891 21.6071 12.0215 20.1068C12.25 20.1428 12.4785 20.1645 12.7176 20.1645C13.048 20.1645 13.3785 20.1176 13.6879 20.0346C11.9969 19.6848 10.7312 18.1592 10.7312 16.3198V16.2729C11.2234 16.5542 11.793 16.7309 12.3977 16.7526C11.4027 16.0745 10.7523 14.9132 10.7523 13.6004C10.7523 12.8971 10.9352 12.2515 11.2551 11.6889C13.0727 13.9863 15.8008 15.4867 18.8629 15.649C18.8066 15.3676 18.7715 15.0755 18.7715 14.7834C18.7715 12.6987 20.4168 11 22.4594 11C23.5211 11 24.4809 11.458 25.1559 12.1938C25.9891 12.0315 26.7906 11.7141 27.4973 11.2813C27.223 12.1613 26.6395 12.8971 25.8766 13.366C26.6184 13.283 27.3391 13.0738 28 12.7817C27.4973 13.5319 26.868 14.1991 26.1508 14.7401Z" fill="white"/>
</svg>
