<svg width="175" height="49" viewBox="0 0 175 49" fill="none" xmlns="http://www.w3.org/2000/svg">
<path d="M0.578125 0.22998H166.871C171.289 0.22998 174.871 3.8117 174.871 8.22998V40.9497C174.871 45.368 171.289 48.9497 166.871 48.9497H0.578125V0.22998Z" fill="#2131C6"/>
<path d="M55.1996 36.5105C53.6335 36.5105 52.2415 36.2967 51.0234 35.8692C49.8104 35.4466 48.7862 34.8227 47.951 33.9974C47.1158 33.1771 46.4819 32.1753 46.0494 30.9921C45.6168 29.8088 45.3981 28.4565 45.3931 26.9352C45.3981 25.4487 45.6193 24.1089 46.0568 22.9157C46.4943 21.7176 47.1332 20.6934 47.9734 19.8433C48.8136 18.9881 49.8402 18.3319 51.0533 17.8745C52.2663 17.4171 53.646 17.1884 55.1921 17.1884C56.6488 17.1884 57.9389 17.4097 59.0625 17.8521C60.1911 18.2946 61.1431 18.9111 61.9187 19.7016C62.6992 20.4871 63.2884 21.4068 63.6861 22.4608C64.0888 23.5098 64.2901 24.6483 64.2901 25.8763C64.2901 26.7264 64.2255 27.5318 64.0962 28.2925C63.967 29.0482 63.7457 29.7193 63.4325 30.306C63.1243 30.8926 62.7042 31.36 62.1722 31.708C61.6403 32.051 60.9741 32.2374 60.1737 32.2673C59.6715 32.2921 59.2315 32.2449 58.8537 32.1256C58.4759 32.0063 58.1701 31.8198 57.9364 31.5663C57.7077 31.3078 57.5636 30.9921 57.5039 30.6192H57.4144C57.3001 30.9175 57.0838 31.1909 56.7656 31.4395C56.4524 31.6831 56.0646 31.8745 55.6023 32.0137C55.1399 32.1479 54.6254 32.2026 54.0586 32.1778C53.4521 32.1479 52.8903 32.0087 52.3732 31.7602C51.8612 31.5066 51.4137 31.1536 51.0309 30.7012C50.6531 30.2438 50.3597 29.692 50.1509 29.0457C49.9421 28.3994 49.8377 27.6661 49.8377 26.8457C49.8377 26.0453 49.9521 25.3394 50.1808 24.7278C50.4094 24.1163 50.7152 23.5943 51.098 23.1618C51.4858 22.7293 51.9233 22.3912 52.4105 22.1476C52.8977 21.899 53.3999 21.7399 53.9169 21.6703C54.4538 21.5957 54.9585 21.6032 55.4308 21.6927C55.9031 21.7822 56.2958 21.9189 56.609 22.1028C56.9272 22.2868 57.1261 22.4881 57.2056 22.7069H57.31V21.8717H59.3906V28.9711C59.3956 29.344 59.4851 29.6448 59.6591 29.8734C59.8381 30.1021 60.0866 30.2165 60.4048 30.2165C60.8026 30.2165 61.1232 30.0599 61.3668 29.7467C61.6154 29.4285 61.7944 28.9413 61.9038 28.285C62.0181 27.6238 62.0728 26.7786 62.0678 25.7495C62.0728 24.9043 61.9609 24.1387 61.7322 23.4526C61.5085 22.7616 61.1903 22.1551 60.7777 21.633C60.3651 21.111 59.8704 20.676 59.2937 20.328C58.7219 19.975 58.0856 19.709 57.3846 19.5301C56.6836 19.3511 55.9354 19.2616 55.1399 19.2616C53.9219 19.2616 52.8505 19.448 51.9258 19.8209C51.0011 20.1888 50.2255 20.7133 49.5991 21.3944C48.9776 22.0755 48.5078 22.8834 48.1896 23.818C47.8764 24.7477 47.7198 25.7769 47.7198 26.9054C47.7198 28.1135 47.8839 29.1849 48.212 30.1195C48.5451 31.0492 49.0323 31.8323 49.6737 32.4686C50.315 33.105 51.108 33.5872 52.0526 33.9153C53.0021 34.2435 54.0934 34.4075 55.3263 34.4075C55.8931 34.4075 56.4474 34.3628 56.9893 34.2733C57.5313 34.1838 58.0185 34.0794 58.451 33.9601C58.8835 33.8408 59.2166 33.7364 59.4503 33.6469L60.0842 35.5411C59.7759 35.7002 59.3583 35.8543 58.8313 36.0034C58.3093 36.1526 57.7326 36.2744 57.1012 36.3688C56.4748 36.4633 55.8409 36.5105 55.1996 36.5105ZM54.6776 30.0375C55.3089 30.0375 55.8136 29.9157 56.1914 29.6721C56.5692 29.4235 56.8402 29.0556 57.0043 28.5684C57.1683 28.0812 57.2479 27.4747 57.2429 26.7488C57.2429 26.0727 57.1584 25.5183 56.9893 25.0858C56.8203 24.6533 56.5494 24.3326 56.1765 24.1238C55.8036 23.915 55.3089 23.8106 54.6925 23.8106C54.1357 23.8106 53.6609 23.9374 53.2681 24.1909C52.8803 24.4445 52.582 24.795 52.3732 25.2424C52.1694 25.6849 52.0675 26.1895 52.0675 26.7563C52.0675 27.323 52.1495 27.8575 52.3136 28.3596C52.4826 28.8568 52.756 29.2619 53.1339 29.5752C53.5167 29.8834 54.0313 30.0375 54.6776 30.0375ZM70.8321 32.4313C69.9323 32.4313 69.1269 32.2002 68.4159 31.7378C67.705 31.2754 67.1432 30.6043 66.7306 29.7243C66.3179 28.8443 66.1116 27.7754 66.1116 26.5176C66.1116 25.2449 66.3204 24.171 66.738 23.296C67.1606 22.4161 67.7298 21.7524 68.4458 21.3049C69.1617 20.8525 69.9596 20.6263 70.8396 20.6263C71.5107 20.6263 72.0626 20.7406 72.4951 20.9693C72.9276 21.193 73.2707 21.464 73.5242 21.7822C73.7778 22.0954 73.9742 22.3912 74.1134 22.6696H74.2252V16.9573H76.9323V32.23H74.2774V30.4253H74.1134C73.9742 30.7037 73.7728 30.9995 73.5093 31.3127C73.2458 31.621 72.8978 31.8845 72.4653 32.1032C72.0328 32.322 71.4884 32.4313 70.8321 32.4313ZM71.5853 30.2165C72.157 30.2165 72.6443 30.0624 73.047 29.7541C73.4497 29.4409 73.7554 29.0059 73.9642 28.4491C74.173 27.8923 74.2774 27.2435 74.2774 26.5027C74.2774 25.7619 74.173 25.1181 73.9642 24.5712C73.7604 24.0244 73.4571 23.5993 73.0544 23.296C72.6567 22.9928 72.167 22.8411 71.5853 22.8411C70.9838 22.8411 70.4816 22.9977 70.0789 23.3109C69.6762 23.6242 69.373 24.0567 69.1691 24.6085C68.9653 25.1604 68.8634 25.7918 68.8634 26.5027C68.8634 27.2186 68.9653 27.8575 69.1691 28.4193C69.3779 28.9761 69.6837 29.4161 70.0864 29.7392C70.4941 30.0574 70.9937 30.2165 71.5853 30.2165ZM83.1051 32.4612C82.3793 32.4612 81.7255 32.3319 81.1438 32.0734C80.5671 31.8099 80.1097 31.4221 79.7717 30.91C79.4386 30.3979 79.272 29.7666 79.272 29.0158C79.272 28.3695 79.3913 27.8351 79.63 27.4125C79.8686 26.9899 80.1942 26.6519 80.6069 26.3983C81.0195 26.1448 81.4844 25.9533 82.0014 25.8241C82.5234 25.6899 83.0629 25.5929 83.6197 25.5332C84.2908 25.4636 84.8352 25.4015 85.2528 25.3468C85.6705 25.2872 85.9737 25.1977 86.1626 25.0783C86.3565 24.9541 86.4535 24.7627 86.4535 24.5041V24.4594C86.4535 23.8976 86.2869 23.4626 85.9538 23.1543C85.6207 22.8461 85.141 22.692 84.5146 22.692C83.8533 22.692 83.3288 22.8362 82.9411 23.1245C82.5582 23.4129 82.2997 23.7534 82.1655 24.1462L79.6449 23.7882C79.8438 23.0922 80.1719 22.5105 80.6293 22.0432C81.0866 21.5709 81.646 21.2179 82.3072 20.9842C82.9684 20.7456 83.6992 20.6263 84.4996 20.6263C85.0515 20.6263 85.6009 20.6909 86.1477 20.8202C86.6946 20.9494 87.1942 21.1632 87.6467 21.4615C88.0991 21.7548 88.462 22.1551 88.7354 22.6622C89.0139 23.1693 89.1531 23.8031 89.1531 24.5638V32.23H86.5579V30.6565H86.4684C86.3043 30.9747 86.0732 31.2729 85.7749 31.5514C85.4815 31.8248 85.1112 32.046 84.6637 32.2151C84.2212 32.3791 83.7017 32.4612 83.1051 32.4612ZM83.8061 30.4775C84.348 30.4775 84.8178 30.3706 85.2156 30.1568C85.6133 29.9381 85.919 29.6497 86.1328 29.2918C86.3516 28.9338 86.4609 28.5435 86.4609 28.121V26.7712C86.3764 26.8408 86.2322 26.9054 86.0284 26.9651C85.8295 27.0247 85.6058 27.0769 85.3572 27.1217C85.1087 27.1664 84.8626 27.2062 84.619 27.241C84.3754 27.2758 84.1641 27.3056 83.9851 27.3305C83.5824 27.3852 83.2219 27.4747 82.9038 27.5989C82.5856 27.7232 82.3345 27.8972 82.1506 28.121C81.9666 28.3397 81.8746 28.6231 81.8746 28.9711C81.8746 29.4683 82.0561 29.8436 82.419 30.0972C82.782 30.3507 83.2443 30.4775 83.8061 30.4775ZM91.8675 32.23V20.7754H94.4851V22.6845H94.6044C94.8132 22.0233 95.1712 21.5137 95.6783 21.1558C96.1903 20.7928 96.7745 20.6114 97.4308 20.6114C97.5799 20.6114 97.7464 20.6188 97.9304 20.6337C98.1193 20.6437 98.2759 20.6611 98.4002 20.6859V23.1693C98.2859 23.1295 98.1044 23.0947 97.8558 23.0649C97.6122 23.0301 97.3761 23.0127 97.1474 23.0127C96.6552 23.0127 96.2127 23.1195 95.82 23.3333C95.4322 23.5421 95.1264 23.833 94.9027 24.2058C94.679 24.5787 94.5671 25.0087 94.5671 25.496V32.23H91.8675ZM102.655 28.6355L102.647 25.3766H103.08L107.196 20.7754H110.351L105.287 26.4132H104.728L102.655 28.6355ZM100.194 32.23V16.9573H102.893V32.23H100.194ZM107.383 32.23L103.654 27.0173L105.474 25.1156L110.612 32.23H107.383ZM112.15 36.5254V20.7754H114.805V22.6696H114.961C115.1 22.3912 115.297 22.0954 115.55 21.7822C115.804 21.464 116.147 21.193 116.579 20.9693C117.012 20.7406 117.564 20.6263 118.235 20.6263C119.12 20.6263 119.918 20.8525 120.629 21.3049C121.345 21.7524 121.911 22.4161 122.329 23.296C122.752 24.171 122.963 25.2449 122.963 26.5176C122.963 27.7754 122.757 28.8443 122.344 29.7243C121.931 30.6043 121.37 31.2754 120.659 31.7378C119.948 32.2002 119.142 32.4313 118.242 32.4313C117.586 32.4313 117.042 32.322 116.609 32.1032C116.177 31.8845 115.829 31.621 115.565 31.3127C115.307 30.9995 115.105 30.7037 114.961 30.4253H114.849V36.5254H112.15ZM114.797 26.5027C114.797 27.2435 114.902 27.8923 115.11 28.4491C115.324 29.0059 115.63 29.4409 116.028 29.7541C116.43 30.0624 116.918 30.2165 117.489 30.2165C118.086 30.2165 118.585 30.0574 118.988 29.7392C119.391 29.4161 119.694 28.9761 119.898 28.4193C120.107 27.8575 120.211 27.2186 120.211 26.5027C120.211 25.7918 120.109 25.1604 119.905 24.6085C119.702 24.0567 119.398 23.6242 118.996 23.3109C118.593 22.9977 118.091 22.8411 117.489 22.8411C116.913 22.8411 116.423 22.9928 116.02 23.296C115.617 23.5993 115.312 24.0244 115.103 24.5712C114.899 25.1181 114.797 25.7619 114.797 26.5027ZM125.275 32.23V20.7754H127.974V32.23H125.275ZM126.632 19.1497C126.204 19.1497 125.837 19.008 125.528 18.7247C125.22 18.4363 125.066 18.0908 125.066 17.6881C125.066 17.2804 125.22 16.9349 125.528 16.6515C125.837 16.3631 126.204 16.219 126.632 16.219C127.065 16.219 127.432 16.3631 127.736 16.6515C128.044 16.9349 128.198 17.2804 128.198 17.6881C128.198 18.0908 128.044 18.4363 127.736 18.7247C127.432 19.008 127.065 19.1497 126.632 19.1497ZM132.958 20.7754L135.27 25.0038L137.619 20.7754H140.475L137.022 26.5027L140.534 32.23H137.693L135.27 28.106L132.868 32.23H130.005L133.495 26.5027L130.094 20.7754H132.958ZM145.262 16.9573V32.23H142.563V16.9573H145.262ZM147.889 32.23V30.5148L153.796 23.1096V23.0127H148.083V20.7754H157.099V22.6174L151.476 29.8958V29.9928H157.293V32.23H147.889Z" fill="white"/>
<path d="M28.104 27.9458L15.994 24.7018L14.168 31.5198L33.096 36.5898L35.776 26.5998L28.958 24.7698L28.104 27.9458ZM19.24 12.5898L16.562 22.5818L23.378 24.4118L24.232 21.2338L36.342 24.4798L38.168 17.6618L19.24 12.5898Z" fill="white"/>
</svg>
