<svg width="175" height="49" viewBox="0 0 175 49" fill="none" xmlns="http://www.w3.org/2000/svg">
<path d="M-0.0078125 8.22998C-0.0078125 3.8117 3.57391 0.22998 7.99219 0.22998H174.285V48.9497H7.99219C3.57391 48.9497 -0.0078125 45.368 -0.0078125 40.9497V8.22998Z" fill="#4146CA"/>
<path d="M57.0082 36.5105C55.4421 36.5105 54.0501 36.2967 52.832 35.8692C51.619 35.4466 50.5948 34.8227 49.7596 33.9974C48.9244 33.1771 48.2905 32.1753 47.858 30.9921C47.4254 29.8088 47.2067 28.4565 47.2017 26.9352C47.2067 25.4487 47.4279 24.1089 47.8654 22.9157C48.3029 21.7176 48.9418 20.6934 49.782 19.8433C50.6222 18.9881 51.6488 18.3319 52.8619 17.8745C54.0749 17.4171 55.4545 17.1884 57.0007 17.1884C58.4574 17.1884 59.7475 17.4097 60.8711 17.8521C61.9996 18.2946 62.9517 18.9111 63.7273 19.7016C64.5078 20.4871 65.0969 21.4068 65.4947 22.4608C65.8974 23.5098 66.0987 24.6483 66.0987 25.8763C66.0987 26.7264 66.0341 27.5318 65.9048 28.2925C65.7756 29.0482 65.5543 29.7193 65.2411 30.306C64.9329 30.8926 64.5128 31.36 63.9808 31.708C63.4489 32.051 62.7827 32.2374 61.9822 32.2673C61.4801 32.2921 61.0401 32.2449 60.6623 32.1256C60.2844 32.0063 59.9787 31.8198 59.745 31.5663C59.5163 31.3078 59.3722 30.9921 59.3125 30.6192H59.223C59.1087 30.9175 58.8924 31.1909 58.5742 31.4395C58.261 31.6831 57.8732 31.8745 57.4109 32.0137C56.9485 32.1479 56.4339 32.2026 55.8672 32.1778C55.2607 32.1479 54.6989 32.0087 54.1818 31.7602C53.6697 31.5066 53.2223 31.1536 52.8395 30.7012C52.4616 30.2438 52.1683 29.692 51.9595 29.0457C51.7507 28.3994 51.6463 27.6661 51.6463 26.8457C51.6463 26.0453 51.7607 25.3394 51.9893 24.7278C52.218 24.1163 52.5238 23.5943 52.9066 23.1618C53.2944 22.7293 53.7319 22.3912 54.2191 22.1476C54.7063 21.899 55.2085 21.7399 55.7255 21.6703C56.2624 21.5957 56.767 21.6032 57.2393 21.6927C57.7116 21.7822 58.1044 21.9189 58.4176 22.1028C58.7358 22.2868 58.9347 22.4881 59.0142 22.7069H59.1186V21.8717H61.1992V28.9711C61.2042 29.344 61.2937 29.6448 61.4677 29.8734C61.6467 30.1021 61.8952 30.2165 62.2134 30.2165C62.6112 30.2165 62.9318 30.0599 63.1754 29.7467C63.424 29.4285 63.603 28.9413 63.7124 28.285C63.8267 27.6238 63.8814 26.7786 63.8764 25.7495C63.8814 24.9043 63.7695 24.1387 63.5408 23.4526C63.3171 22.7616 62.9989 22.1551 62.5863 21.633C62.1737 21.111 61.679 20.676 61.1023 20.328C60.5305 19.975 59.8942 19.709 59.1932 19.5301C58.4922 19.3511 57.744 19.2616 56.9485 19.2616C55.7305 19.2616 54.6591 19.448 53.7344 19.8209C52.8097 20.1888 52.0341 20.7133 51.4077 21.3944C50.7862 22.0755 50.3164 22.8834 49.9982 23.818C49.685 24.7477 49.5284 25.7769 49.5284 26.9054C49.5284 28.1135 49.6925 29.1849 50.0206 30.1195C50.3537 31.0492 50.8409 31.8323 51.4822 32.4686C52.1236 33.105 52.9165 33.5872 53.8612 33.9153C54.8107 34.2435 55.902 34.4075 57.1349 34.4075C57.7017 34.4075 58.256 34.3628 58.7979 34.2733C59.3398 34.1838 59.8271 34.0794 60.2596 33.9601C60.6921 33.8408 61.0252 33.7364 61.2589 33.6469L61.8928 35.5411C61.5845 35.7002 61.1669 35.8543 60.6399 36.0034C60.1179 36.1526 59.5412 36.2744 58.9098 36.3688C58.2834 36.4633 57.6495 36.5105 57.0082 36.5105ZM56.4862 30.0375C57.1175 30.0375 57.6222 29.9157 58 29.6721C58.3778 29.4235 58.6488 29.0556 58.8129 28.5684C58.9769 28.0812 59.0565 27.4747 59.0515 26.7488C59.0515 26.0727 58.967 25.5183 58.7979 25.0858C58.6289 24.6533 58.358 24.3326 57.9851 24.1238C57.6122 23.915 57.1175 23.8106 56.5011 23.8106C55.9442 23.8106 55.4695 23.9374 55.0767 24.1909C54.6889 24.4445 54.3906 24.795 54.1818 25.2424C53.978 25.6849 53.8761 26.1895 53.8761 26.7563C53.8761 27.323 53.9581 27.8575 54.1222 28.3596C54.2912 28.8568 54.5646 29.2619 54.9425 29.5752C55.3253 29.8834 55.8398 30.0375 56.4862 30.0375ZM72.6407 32.4313C71.7409 32.4313 70.9355 32.2002 70.2245 31.7378C69.5136 31.2754 68.9518 30.6043 68.5392 29.7243C68.1265 28.8443 67.9202 27.7754 67.9202 26.5176C67.9202 25.2449 68.129 24.171 68.5466 23.296C68.9692 22.4161 69.5384 21.7524 70.2544 21.3049C70.9703 20.8525 71.7682 20.6263 72.6482 20.6263C73.3193 20.6263 73.8712 20.7406 74.3037 20.9693C74.7362 21.193 75.0793 21.464 75.3328 21.7822C75.5864 22.0954 75.7828 22.3912 75.922 22.6696H76.0338V16.9573H78.7409V32.23H76.086V30.4253H75.922C75.7828 30.7037 75.5814 30.9995 75.3179 31.3127C75.0544 31.621 74.7064 31.8845 74.2739 32.1032C73.8414 32.322 73.297 32.4313 72.6407 32.4313ZM73.3939 30.2165C73.9656 30.2165 74.4529 30.0624 74.8556 29.7541C75.2583 29.4409 75.564 29.0059 75.7728 28.4491C75.9816 27.8923 76.086 27.2435 76.086 26.5027C76.086 25.7619 75.9816 25.1181 75.7728 24.5712C75.569 24.0244 75.2657 23.5993 74.863 23.296C74.4653 22.9928 73.9756 22.8411 73.3939 22.8411C72.7923 22.8411 72.2902 22.9977 71.8875 23.3109C71.4848 23.6242 71.1816 24.0567 70.9777 24.6085C70.7739 25.1604 70.672 25.7918 70.672 26.5027C70.672 27.2186 70.7739 27.8575 70.9777 28.4193C71.1865 28.9761 71.4923 29.4161 71.895 29.7392C72.3026 30.0574 72.8023 30.2165 73.3939 30.2165ZM84.9137 32.4612C84.1879 32.4612 83.5341 32.3319 82.9524 32.0734C82.3757 31.8099 81.9183 31.4221 81.5803 30.91C81.2472 30.3979 81.0806 29.7666 81.0806 29.0158C81.0806 28.3695 81.1999 27.8351 81.4386 27.4125C81.6772 26.9899 82.0028 26.6519 82.4155 26.3983C82.8281 26.1448 83.293 25.9533 83.81 25.8241C84.332 25.6899 84.8714 25.5929 85.4283 25.5332C86.0994 25.4636 86.6438 25.4015 87.0614 25.3468C87.479 25.2872 87.7823 25.1977 87.9712 25.0783C88.1651 24.9541 88.2621 24.7627 88.2621 24.5041V24.4594C88.2621 23.8976 88.0955 23.4626 87.7624 23.1543C87.4293 22.8461 86.9496 22.692 86.3232 22.692C85.6619 22.692 85.1374 22.8362 84.7496 23.1245C84.3668 23.4129 84.1083 23.7534 83.9741 24.1462L81.4535 23.7882C81.6523 23.0922 81.9805 22.5105 82.4379 22.0432C82.8952 21.5709 83.4545 21.2179 84.1158 20.9842C84.777 20.7456 85.5078 20.6263 86.3082 20.6263C86.8601 20.6263 87.4094 20.6909 87.9563 20.8202C88.5032 20.9494 89.0028 21.1632 89.4553 21.4615C89.9077 21.7548 90.2706 22.1551 90.544 22.6622C90.8224 23.1693 90.9616 23.8031 90.9616 24.5638V32.23H88.3665V30.6565H88.277C88.1129 30.9747 87.8817 31.2729 87.5835 31.5514C87.2901 31.8248 86.9197 32.046 86.4723 32.2151C86.0298 32.3791 85.5103 32.4612 84.9137 32.4612ZM85.6147 30.4775C86.1566 30.4775 86.6264 30.3706 87.0241 30.1568C87.4219 29.9381 87.7276 29.6497 87.9414 29.2918C88.1602 28.9338 88.2695 28.5435 88.2695 28.121V26.7712C88.185 26.8408 88.0408 26.9054 87.837 26.9651C87.6381 27.0247 87.4144 27.0769 87.1658 27.1217C86.9173 27.1664 86.6712 27.2062 86.4276 27.241C86.1839 27.2758 85.9727 27.3056 85.7937 27.3305C85.391 27.3852 85.0305 27.4747 84.7124 27.5989C84.3942 27.7232 84.1431 27.8972 83.9592 28.121C83.7752 28.3397 83.6832 28.6231 83.6832 28.9711C83.6832 29.4683 83.8647 29.8436 84.2276 30.0972C84.5906 30.3507 85.0529 30.4775 85.6147 30.4775ZM93.6761 32.23V20.7754H96.2937V22.6845H96.413C96.6218 22.0233 96.9798 21.5137 97.4869 21.1558C97.9989 20.7928 98.5831 20.6114 99.2393 20.6114C99.3885 20.6114 99.555 20.6188 99.739 20.6337C99.9279 20.6437 100.085 20.6611 100.209 20.6859V23.1693C100.094 23.1295 99.913 23.0947 99.6644 23.0649C99.4208 23.0301 99.1847 23.0127 98.956 23.0127C98.4638 23.0127 98.0213 23.1195 97.6286 23.3333C97.2408 23.5421 96.935 23.833 96.7113 24.2058C96.4876 24.5787 96.3757 25.0087 96.3757 25.496V32.23H93.6761ZM104.463 28.6355L104.456 25.3766H104.888L109.005 20.7754H112.159L107.096 26.4132H106.536L104.463 28.6355ZM102.002 32.23V16.9573H104.702V32.23H102.002ZM109.191 32.23L105.463 27.0173L107.282 25.1156L112.42 32.23H109.191ZM113.958 36.5254V20.7754H116.613V22.6696H116.77C116.909 22.3912 117.105 22.0954 117.359 21.7822C117.612 21.464 117.956 21.193 118.388 20.9693C118.821 20.7406 119.372 20.6263 120.044 20.6263C120.929 20.6263 121.726 20.8525 122.437 21.3049C123.153 21.7524 123.72 22.4161 124.138 23.296C124.56 24.171 124.772 25.2449 124.772 26.5176C124.772 27.7754 124.565 28.8443 124.153 29.7243C123.74 30.6043 123.178 31.2754 122.467 31.7378C121.756 32.2002 120.951 32.4313 120.051 32.4313C119.395 32.4313 118.85 32.322 118.418 32.1032C117.985 31.8845 117.637 31.621 117.374 31.3127C117.115 30.9995 116.914 30.7037 116.77 30.4253H116.658V36.5254H113.958ZM116.606 26.5027C116.606 27.2435 116.71 27.8923 116.919 28.4491C117.133 29.0059 117.438 29.4409 117.836 29.7541C118.239 30.0624 118.726 30.2165 119.298 30.2165C119.894 30.2165 120.394 30.0574 120.797 29.7392C121.199 29.4161 121.503 28.9761 121.707 28.4193C121.915 27.8575 122.02 27.2186 122.02 26.5027C122.02 25.7918 121.918 25.1604 121.714 24.6085C121.51 24.0567 121.207 23.6242 120.804 23.3109C120.402 22.9977 119.899 22.8411 119.298 22.8411C118.721 22.8411 118.231 22.9928 117.829 23.296C117.426 23.5993 117.12 24.0244 116.911 24.5712C116.708 25.1181 116.606 25.7619 116.606 26.5027ZM127.083 32.23V20.7754H129.783V32.23H127.083ZM128.441 19.1497C128.013 19.1497 127.645 19.008 127.337 18.7247C127.029 18.4363 126.875 18.0908 126.875 17.6881C126.875 17.2804 127.029 16.9349 127.337 16.6515C127.645 16.3631 128.013 16.219 128.441 16.219C128.873 16.219 129.241 16.3631 129.544 16.6515C129.853 16.9349 130.007 17.2804 130.007 17.6881C130.007 18.0908 129.853 18.4363 129.544 18.7247C129.241 19.008 128.873 19.1497 128.441 19.1497ZM134.766 20.7754L137.078 25.0038L139.427 20.7754H142.283L138.831 26.5027L142.343 32.23H139.502L137.078 28.106L134.677 32.23H131.813L135.303 26.5027L131.903 20.7754H134.766ZM147.071 16.9573V32.23H144.371V16.9573H147.071ZM149.698 32.23V30.5148L155.604 23.1096V23.0127H149.892V20.7754H158.908V22.6174L153.285 29.8958V29.9928H159.102V32.23H149.698Z" fill="white"/>
<path d="M31.5006 16.9598C29.9446 16.2456 28.3025 15.7363 26.6155 15.4446C26.6002 15.4418 26.5843 15.4438 26.5702 15.4505C26.5562 15.4571 26.5445 15.4681 26.537 15.4817C26.326 15.857 26.0923 16.3465 25.9287 16.7312C24.084 16.455 22.2487 16.455 20.4419 16.7312C20.2783 16.3379 20.0361 15.857 19.8242 15.4817C19.8163 15.4684 19.8047 15.4577 19.7907 15.4511C19.7767 15.4445 19.761 15.4423 19.7457 15.4447C18.0585 15.7357 16.4163 16.245 14.8605 16.9597C14.8472 16.9654 14.836 16.9751 14.8284 16.9874C11.717 21.6358 10.8646 26.1699 11.2828 30.6478C11.284 30.6588 11.2874 30.6694 11.2927 30.679C11.2981 30.6887 11.3053 30.6971 11.314 30.7039C13.3668 32.2115 15.3553 33.1267 17.3069 33.7333C17.3221 33.7378 17.3383 33.7376 17.3533 33.7327C17.3684 33.7278 17.3815 33.7183 17.3911 33.7057C17.8527 33.0753 18.2642 32.4105 18.6171 31.7115C18.6219 31.7019 18.6247 31.6915 18.6252 31.6807C18.6257 31.67 18.624 31.6593 18.62 31.6493C18.6161 31.6393 18.6101 31.6303 18.6024 31.6228C18.5947 31.6153 18.5856 31.6095 18.5755 31.6058C17.9227 31.3582 17.3012 31.0563 16.7033 30.7135C16.6924 30.7071 16.6832 30.6981 16.6766 30.6873C16.67 30.6766 16.6662 30.6643 16.6654 30.6517C16.6647 30.6391 16.667 30.6265 16.6723 30.615C16.6776 30.6035 16.6856 30.5935 16.6957 30.5858C16.8215 30.4915 16.9474 30.3935 17.0675 30.2944C17.0782 30.2856 17.0911 30.28 17.1048 30.2781C17.1185 30.2763 17.1325 30.2783 17.1451 30.2839C21.0729 32.0772 25.3251 32.0772 29.2065 30.2839C29.2191 30.2779 29.2332 30.2756 29.2471 30.2773C29.261 30.279 29.2742 30.2846 29.285 30.2934C29.4052 30.3924 29.531 30.4915 29.6578 30.5858C29.6679 30.5934 29.676 30.6033 29.6813 30.6148C29.6867 30.6262 29.6891 30.6388 29.6885 30.6514C29.6878 30.664 29.6841 30.6762 29.6776 30.687C29.6711 30.6979 29.662 30.7069 29.6512 30.7134C29.0531 31.0628 28.4265 31.361 27.7782 31.6048C27.7681 31.6087 27.759 31.6146 27.7514 31.6222C27.7438 31.6298 27.7378 31.639 27.734 31.6491C27.7301 31.6591 27.7285 31.6699 27.7291 31.6807C27.7297 31.6914 27.7326 31.7019 27.7375 31.7115C28.0979 32.4095 28.5094 33.0743 28.9625 33.7047C28.9718 33.7177 28.9849 33.7275 29 33.7326C29.0151 33.7377 29.0314 33.738 29.0467 33.7333C31.0077 33.1266 32.9962 32.2114 35.049 30.7039C35.0578 30.6975 35.0652 30.6892 35.0706 30.6797C35.076 30.6702 35.0793 30.6596 35.0803 30.6487C35.5807 25.4717 34.2421 20.9748 31.5318 16.9883C31.5251 16.9754 31.5141 16.9653 31.5006 16.9598ZM19.2036 27.9212C18.0211 27.9212 17.0467 26.8355 17.0467 25.5022C17.0467 24.169 18.0022 23.0833 19.2037 23.0833C20.4145 23.0833 21.3794 24.1785 21.3605 25.5023C21.3605 26.8355 20.405 27.9212 19.2036 27.9212ZM27.1784 27.9212C25.9959 27.9212 25.0215 26.8355 25.0215 25.5022C25.0215 24.169 25.9769 23.0833 27.1784 23.0833C28.3892 23.0833 29.3541 24.1785 29.3352 25.5023C29.3352 26.8355 28.3892 27.9212 27.1784 27.9212Z" fill="white"/>
</svg>
