<svg width="175" height="49" viewBox="0 0 175 49" fill="none" xmlns="http://www.w3.org/2000/svg">
<path d="M0.285156 0.22998H174.578V48.9497H0.285156V0.22998Z" fill="#1791E9"/>
<path d="M55.7386 36.5105C54.1726 36.5105 52.7805 36.2967 51.5625 35.8692C50.3494 35.4466 49.3253 34.8227 48.4901 33.9974C47.6548 33.1771 47.021 32.1753 46.5884 30.9921C46.1559 29.8088 45.9371 28.4565 45.9322 26.9352C45.9371 25.4487 46.1584 24.1089 46.5959 22.9157C47.0334 21.7176 47.6722 20.6934 48.5124 19.8433C49.3526 18.9881 50.3793 18.3319 51.5923 17.8745C52.8054 17.4171 54.185 17.1884 55.7312 17.1884C57.1879 17.1884 58.478 17.4097 59.6016 17.8521C60.7301 18.2946 61.6822 18.9111 62.4577 19.7016C63.2383 20.4871 63.8274 21.4068 64.2251 22.4608C64.6278 23.5098 64.8292 24.6483 64.8292 25.8763C64.8292 26.7264 64.7646 27.5318 64.6353 28.2925C64.506 29.0482 64.2848 29.7193 63.9716 30.306C63.6634 30.8926 63.2433 31.36 62.7113 31.708C62.1793 32.051 61.5131 32.2374 60.7127 32.2673C60.2106 32.2921 59.7706 32.2449 59.3928 32.1256C59.0149 32.0063 58.7092 31.8198 58.4755 31.5663C58.2468 31.3078 58.1026 30.9921 58.043 30.6192H57.9535C57.8391 30.9175 57.6229 31.1909 57.3047 31.4395C56.9915 31.6831 56.6037 31.8745 56.1413 32.0137C55.679 32.1479 55.1644 32.2026 54.5977 32.1778C53.9911 32.1479 53.4293 32.0087 52.9123 31.7602C52.4002 31.5066 51.9528 31.1536 51.57 30.7012C51.1921 30.2438 50.8988 29.692 50.69 29.0457C50.4812 28.3994 50.3768 27.6661 50.3768 26.8457C50.3768 26.0453 50.4911 25.3394 50.7198 24.7278C50.9485 24.1163 51.2543 23.5943 51.6371 23.1618C52.0249 22.7293 52.4624 22.3912 52.9496 22.1476C53.4368 21.899 53.9389 21.7399 54.456 21.6703C54.9929 21.5957 55.4975 21.6032 55.9698 21.6927C56.4421 21.7822 56.8349 21.9189 57.1481 22.1028C57.4663 22.2868 57.6651 22.4881 57.7447 22.7069H57.8491V21.8717H59.9297V28.9711C59.9347 29.344 60.0241 29.6448 60.1982 29.8734C60.3771 30.1021 60.6257 30.2165 60.9439 30.2165C61.3416 30.2165 61.6623 30.0599 61.9059 29.7467C62.1545 29.4285 62.3335 28.9413 62.4428 28.285C62.5572 27.6238 62.6119 26.7786 62.6069 25.7495C62.6119 24.9043 62.5 24.1387 62.2713 23.4526C62.0476 22.7616 61.7294 22.1551 61.3168 21.633C60.9041 21.111 60.4094 20.676 59.8327 20.328C59.261 19.975 58.6246 19.709 57.9237 19.5301C57.2227 19.3511 56.4744 19.2616 55.679 19.2616C54.4609 19.2616 53.3896 19.448 52.4648 19.8209C51.5401 20.1888 50.7646 20.7133 50.1381 21.3944C49.5167 22.0755 49.0469 22.8834 48.7287 23.818C48.4155 24.7477 48.2589 25.7769 48.2589 26.9054C48.2589 28.1135 48.4229 29.1849 48.7511 30.1195C49.0842 31.0492 49.5714 31.8323 50.2127 32.4686C50.854 33.105 51.647 33.5872 52.5916 33.9153C53.5412 34.2435 54.6325 34.4075 55.8654 34.4075C56.4322 34.4075 56.9865 34.3628 57.5284 34.2733C58.0703 34.1838 58.5575 34.0794 58.9901 33.9601C59.4226 33.8408 59.7557 33.7364 59.9893 33.6469L60.6232 35.5411C60.315 35.7002 59.8974 35.8543 59.3704 36.0034C58.8484 36.1526 58.2717 36.2744 57.6403 36.3688C57.0138 36.4633 56.38 36.5105 55.7386 36.5105ZM55.2166 30.0375C55.848 30.0375 56.3526 29.9157 56.7305 29.6721C57.1083 29.4235 57.3793 29.0556 57.5433 28.5684C57.7074 28.0812 57.7869 27.4747 57.782 26.7488C57.782 26.0727 57.6974 25.5183 57.5284 25.0858C57.3594 24.6533 57.0884 24.3326 56.7156 24.1238C56.3427 23.915 55.848 23.8106 55.2315 23.8106C54.6747 23.8106 54.1999 23.9374 53.8072 24.1909C53.4194 24.4445 53.1211 24.795 52.9123 25.2424C52.7085 25.6849 52.6065 26.1895 52.6065 26.7563C52.6065 27.323 52.6886 27.8575 52.8526 28.3596C53.0217 28.8568 53.2951 29.2619 53.6729 29.5752C54.0558 29.8834 54.5703 30.0375 55.2166 30.0375ZM71.3712 32.4313C70.4713 32.4313 69.6659 32.2002 68.955 31.7378C68.2441 31.2754 67.6823 30.6043 67.2696 29.7243C66.857 28.8443 66.6507 27.7754 66.6507 26.5176C66.6507 25.2449 66.8595 24.171 67.2771 23.296C67.6997 22.4161 68.2689 21.7524 68.9848 21.3049C69.7007 20.8525 70.4987 20.6263 71.3786 20.6263C72.0498 20.6263 72.6017 20.7406 73.0342 20.9693C73.4667 21.193 73.8097 21.464 74.0633 21.7822C74.3169 22.0954 74.5132 22.3912 74.6524 22.6696H74.7643V16.9573H77.4713V32.23H74.8165V30.4253H74.6524C74.5132 30.7037 74.3119 30.9995 74.0484 31.3127C73.7849 31.621 73.4369 31.8845 73.0044 32.1032C72.5718 32.322 72.0274 32.4313 71.3712 32.4313ZM72.1244 30.2165C72.6961 30.2165 73.1833 30.0624 73.586 29.7541C73.9887 29.4409 74.2945 29.0059 74.5033 28.4491C74.7121 27.8923 74.8165 27.2435 74.8165 26.5027C74.8165 25.7619 74.7121 25.1181 74.5033 24.5712C74.2995 24.0244 73.9962 23.5993 73.5935 23.296C73.1958 22.9928 72.7061 22.8411 72.1244 22.8411C71.5228 22.8411 71.0207 22.9977 70.618 23.3109C70.2153 23.6242 69.912 24.0567 69.7082 24.6085C69.5044 25.1604 69.4024 25.7918 69.4024 26.5027C69.4024 27.2186 69.5044 27.8575 69.7082 28.4193C69.917 28.9761 70.2227 29.4161 70.6254 29.7392C71.0331 30.0574 71.5328 30.2165 72.1244 30.2165ZM83.6442 32.4612C82.9183 32.4612 82.2646 32.3319 81.6829 32.0734C81.1062 31.8099 80.6488 31.4221 80.3107 30.91C79.9776 30.3979 79.8111 29.7666 79.8111 29.0158C79.8111 28.3695 79.9304 27.8351 80.169 27.4125C80.4077 26.9899 80.7333 26.6519 81.146 26.3983C81.5586 26.1448 82.0234 25.9533 82.5405 25.8241C83.0625 25.6899 83.6019 25.5929 84.1587 25.5332C84.8299 25.4636 85.3743 25.4015 85.7919 25.3468C86.2095 25.2872 86.5128 25.1977 86.7017 25.0783C86.8956 24.9541 86.9925 24.7627 86.9925 24.5041V24.4594C86.9925 23.8976 86.826 23.4626 86.4929 23.1543C86.1598 22.8461 85.68 22.692 85.0536 22.692C84.3924 22.692 83.8679 22.8362 83.4801 23.1245C83.0973 23.4129 82.8388 23.7534 82.7045 24.1462L80.1839 23.7882C80.3828 23.0922 80.7109 22.5105 81.1683 22.0432C81.6257 21.5709 82.185 21.2179 82.8462 20.9842C83.5075 20.7456 84.2383 20.6263 85.0387 20.6263C85.5906 20.6263 86.1399 20.6909 86.6868 20.8202C87.2337 20.9494 87.7333 21.1632 88.1857 21.4615C88.6381 21.7548 89.0011 22.1551 89.2745 22.6622C89.5529 23.1693 89.6921 23.8031 89.6921 24.5638V32.23H87.0969V30.6565H87.0075C86.8434 30.9747 86.6122 31.2729 86.3139 31.5514C86.0206 31.8248 85.6502 32.046 85.2028 32.2151C84.7603 32.3791 84.2408 32.4612 83.6442 32.4612ZM84.3452 30.4775C84.8871 30.4775 85.3569 30.3706 85.7546 30.1568C86.1523 29.9381 86.4581 29.6497 86.6719 29.2918C86.8906 28.9338 87 28.5435 87 28.121V26.7712C86.9155 26.8408 86.7713 26.9054 86.5675 26.9651C86.3686 27.0247 86.1449 27.0769 85.8963 27.1217C85.6477 27.1664 85.4016 27.2062 85.158 27.241C84.9144 27.2758 84.7031 27.3056 84.5241 27.3305C84.1214 27.3852 83.761 27.4747 83.4428 27.5989C83.1246 27.7232 82.8736 27.8972 82.6896 28.121C82.5057 28.3397 82.4137 28.6231 82.4137 28.9711C82.4137 29.4683 82.5952 29.8436 82.9581 30.0972C83.321 30.3507 83.7834 30.4775 84.3452 30.4775ZM92.4066 32.23V20.7754H95.0241V22.6845H95.1435C95.3523 22.0233 95.7102 21.5137 96.2173 21.1558C96.7294 20.7928 97.3136 20.6114 97.9698 20.6114C98.119 20.6114 98.2855 20.6188 98.4695 20.6337C98.6584 20.6437 98.815 20.6611 98.9393 20.6859V23.1693C98.8249 23.1295 98.6435 23.0947 98.3949 23.0649C98.1513 23.0301 97.9151 23.0127 97.6864 23.0127C97.1942 23.0127 96.7518 23.1195 96.359 23.3333C95.9712 23.5421 95.6655 23.833 95.4418 24.2058C95.218 24.5787 95.1062 25.0087 95.1062 25.496V32.23H92.4066ZM103.194 28.6355L103.186 25.3766H103.619L107.735 20.7754H110.89L105.826 26.4132H105.267L103.194 28.6355ZM100.733 32.23V16.9573H103.432V32.23H100.733ZM107.922 32.23L104.193 27.0173L106.013 25.1156L111.151 32.23H107.922ZM112.689 36.5254V20.7754H115.344V22.6696H115.5C115.639 22.3912 115.836 22.0954 116.089 21.7822C116.343 21.464 116.686 21.193 117.119 20.9693C117.551 20.7406 118.103 20.6263 118.774 20.6263C119.659 20.6263 120.457 20.8525 121.168 21.3049C121.884 21.7524 122.451 22.4161 122.868 23.296C123.291 24.171 123.502 25.2449 123.502 26.5176C123.502 27.7754 123.296 28.8443 122.883 29.7243C122.47 30.6043 121.909 31.2754 121.198 31.7378C120.487 32.2002 119.681 32.4313 118.782 32.4313C118.125 32.4313 117.581 32.322 117.148 32.1032C116.716 31.8845 116.368 31.621 116.104 31.3127C115.846 30.9995 115.644 30.7037 115.5 30.4253H115.388V36.5254H112.689ZM115.336 26.5027C115.336 27.2435 115.441 27.8923 115.649 28.4491C115.863 29.0059 116.169 29.4409 116.567 29.7541C116.969 30.0624 117.457 30.2165 118.028 30.2165C118.625 30.2165 119.125 30.0574 119.527 29.7392C119.93 29.4161 120.233 28.9761 120.437 28.4193C120.646 27.8575 120.75 27.2186 120.75 26.5027C120.75 25.7918 120.648 25.1604 120.445 24.6085C120.241 24.0567 119.937 23.6242 119.535 23.3109C119.132 22.9977 118.63 22.8411 118.028 22.8411C117.452 22.8411 116.962 22.9928 116.559 23.296C116.157 23.5993 115.851 24.0244 115.642 24.5712C115.438 25.1181 115.336 25.7619 115.336 26.5027ZM125.814 32.23V20.7754H128.513V32.23H125.814ZM127.171 19.1497C126.744 19.1497 126.376 19.008 126.067 18.7247C125.759 18.4363 125.605 18.0908 125.605 17.6881C125.605 17.2804 125.759 16.9349 126.067 16.6515C126.376 16.3631 126.744 16.219 127.171 16.219C127.604 16.219 127.972 16.3631 128.275 16.6515C128.583 16.9349 128.737 17.2804 128.737 17.6881C128.737 18.0908 128.583 18.4363 128.275 18.7247C127.972 19.008 127.604 19.1497 127.171 19.1497ZM133.497 20.7754L135.809 25.0038L138.158 20.7754H141.014L137.561 26.5027L141.074 32.23H138.232L135.809 28.106L133.407 32.23H130.544L134.034 26.5027L130.633 20.7754H133.497ZM145.801 16.9573V32.23H143.102V16.9573H145.801ZM148.428 32.23V30.5148L154.335 23.1096V23.0127H148.622V20.7754H157.638V22.6174L152.015 29.8958V29.9928H157.832V32.23H148.428Z" fill="white"/>
<path d="M36.2825 19.3938C36.2977 19.6181 36.2977 19.8474 36.2977 20.0716C36.2977 26.9848 30.9557 34.9547 21.1925 34.9547C18.1826 34.9547 15.3902 34.0974 13.043 32.6071C13.4679 32.6569 13.8827 32.6719 14.3228 32.6719C16.8066 32.6719 19.0881 31.8445 20.9143 30.4389C18.5822 30.3891 16.6245 28.8838 15.9517 26.8104C16.2805 26.8602 16.6093 26.8901 16.9533 26.8901C17.4288 26.8901 17.9044 26.8253 18.3495 26.7107C15.9163 26.2272 14.0952 24.1189 14.0952 21.5769V21.5121C14.8034 21.9009 15.6229 22.1451 16.493 22.175C15.0614 21.238 14.1255 19.633 14.1255 17.8188C14.1255 16.8468 14.3886 15.9546 14.8489 15.1771C17.4642 18.3521 21.3898 20.4255 25.7959 20.6498C25.7149 20.261 25.6644 19.8573 25.6644 19.4536C25.6644 16.5727 28.0318 14.2251 30.9709 14.2251C32.4986 14.2251 33.8796 14.8581 34.8509 15.8749C36.0498 15.6506 37.2032 15.212 38.22 14.6139C37.8254 15.83 36.9857 16.8468 35.8879 17.4948C36.9553 17.3801 37.9923 17.0911 38.9434 16.6873C38.22 17.7241 37.3145 18.6461 36.2825 19.3938Z" fill="white"/>
</svg>
